<?xml version="1.0" encoding="UTF-8"?>
<svg xmlns="http://www.w3.org/2000/svg" xmlns:xlink="http://www.w3.org/1999/xlink" width="300px" height="300px" viewBox="0 0 300 300" version="1.1">
<g id="surface1">
<path style=" stroke:none;fill-rule:nonzero;fill:rgb(54.901963%,32.156864%,100%);fill-opacity:1;" d="M 78.183594 109.746094 L 79.605469 124.945312 C 79.605469 124.945312 79.039062 124.789062 78.019531 124.429688 C 77.324219 124.179688 76.414062 123.84375 75.332031 123.402344 C 74.824219 123.1875 74.273438 122.953125 73.6875 122.695312 C 72.941406 122.359375 72.140625 121.984375 71.289062 121.566406 C 60 116.007812 40.332031 102.632812 32.582031 74.59375 C 27.132812 54.890625 31.230469 41.066406 39.585938 32.992188 L 39.59375 32.992188 C 44.765625 27.984375 51.566406 25.1875 58.742188 24.558594 C 61.628906 24.308594 64.570312 24.40625 67.488281 24.859375 C 67.835938 24.910156 68.1875 24.972656 68.535156 25.035156 C 69.140625 25.144531 69.75 25.273438 70.359375 25.414062 C 71.503906 25.679688 72.640625 26.003906 73.769531 26.378906 L 73.769531 43.953125 C 73.769531 43.953125 73.21875 43.6875 72.265625 43.328125 C 71.640625 43.09375 70.851562 42.8125 69.929688 42.53125 C 69.660156 42.453125 69.378906 42.367188 69.089844 42.285156 C 66.789062 41.648438 63.875 41.078125 60.886719 41.144531 C 53.578125 41.304688 45.882812 45.273438 45.882812 61.261719 C 45.882812 80.925781 59.367188 95.421875 68.914062 103.21875 C 70.183594 104.253906 71.375 105.164062 72.460938 105.964844 C 73.460938 106.691406 74.367188 107.324219 75.152344 107.84375 C 77.027344 109.101562 78.183594 109.746094 78.183594 109.746094 Z M 247.082031 24.804688 C 247.082031 24.804688 247.070312 24.804688 247.039062 24.796875 C 244.757812 24.46875 242.433594 24.355469 240.09375 24.46875 L 240.066406 24.46875 C 238.265625 24.566406 236.460938 24.789062 234.671875 25.144531 C 234.652344 25.144531 234.632812 25.148438 234.613281 25.15625 C 234.613281 25.15625 234.613281 25.15625 234.609375 25.15625 L 234.601562 25.15625 C 233.398438 25.398438 232.195312 25.695312 231.007812 26.0625 C 230.664062 26.164062 230.328125 26.265625 229.992188 26.378906 L 229.992188 43.953125 C 229.992188 43.953125 231.242188 43.363281 233.210938 42.726562 C 233.21875 42.726562 233.21875 42.726562 233.222656 42.71875 C 235.582031 41.960938 238.96875 41.125 242.484375 41.132812 C 243.484375 41.140625 244.492188 41.214844 245.496094 41.375 C 251.90625 42.425781 257.878906 47.179688 257.878906 61.261719 C 257.878906 77.777344 248.363281 90.648438 239.664062 98.960938 C 238.726562 99.859375 237.796875 100.703125 236.894531 101.484375 C 233.332031 104.589844 230.117188 106.863281 228.035156 108.226562 C 226.5 109.234375 225.578125 109.746094 225.578125 109.746094 L 224.15625 124.945312 C 224.15625 124.945312 224.394531 124.878906 224.84375 124.734375 L 224.847656 124.734375 C 226.566406 124.175781 231.328125 122.46875 237.257812 118.988281 C 248.679688 112.28125 264.433594 98.984375 271.179688 74.59375 C 279.679688 43.855469 264.933594 27.4375 247.082031 24.804688 Z M 247.082031 24.804688 "/>
<path style=" stroke:none;fill-rule:nonzero;fill:rgb(45.882353%,18.431373%,73.333335%);fill-opacity:1;" d="M 234.601562 6.160156 C 234.363281 7.601562 234.113281 9.050781 233.863281 10.496094 C 233.863281 10.519531 233.859375 10.546875 233.847656 10.574219 C 230.875 27.652344 227.199219 44.617188 224.742188 61.789062 C 224.046875 66.640625 223.570312 71.515625 222.777344 76.351562 C 221.945312 81.445312 220.917969 86.5 220.140625 91.59375 C 219.347656 96.773438 218.484375 102.253906 218.917969 107.503906 C 219.273438 111.710938 221.304688 116.269531 221.4375 119.921875 C 221.308594 120.128906 221.1875 120.34375 221.058594 120.554688 C 219.570312 123.007812 217.96875 125.398438 216.304688 127.738281 C 215.441406 128.289062 214.664062 129.035156 214.035156 129.921875 C 212.800781 131.671875 211.6875 133.484375 210.621094 135.328125 C 210.332031 135.703125 210.039062 136.078125 209.746094 136.453125 C 205.664062 141.617188 201.640625 146.863281 197.371094 151.875 C 194.40625 155.371094 190.621094 159.171875 187.445312 161.441406 C 183.285156 164.414062 179.898438 165.863281 174.914062 166.710938 C 172.351562 167.148438 170.628906 169.511719 170.199219 171.996094 C 170.050781 172.84375 170.050781 173.703125 170.21875 174.503906 C 170.246094 174.617188 170.273438 174.726562 170.300781 174.835938 C 170.523438 175.660156 170.882812 176.363281 171.324219 176.96875 C 170.386719 177.21875 169.445312 177.453125 168.5 177.667969 C 164.132812 178.664062 159.617188 179.28125 154.996094 179.492188 L 154.949219 179.492188 C 153.796875 179.546875 152.640625 179.570312 151.476562 179.570312 C 143.679688 179.570312 136.148438 178.40625 129.0625 176.234375 C 128.6875 176.117188 128.3125 176 127.941406 175.875 L 127.929688 175.875 C 105.132812 168.503906 87.011719 150.714844 79.195312 128.117188 C 78.773438 126.902344 78.382812 125.671875 78.023438 124.429688 C 77.324219 124.179688 76.417969 123.84375 75.332031 123.402344 C 74.824219 123.1875 74.273438 122.957031 73.6875 122.695312 C 72.945312 122.359375 72.140625 121.984375 71.289062 121.570312 C 60 116.007812 40.335938 102.632812 32.582031 74.59375 C 27.132812 54.890625 31.234375 41.066406 39.589844 32.992188 L 39.59375 32.992188 C 39.59375 32.992188 20.152344 72.375 58.746094 105.3125 C 58.746094 105.3125 65.0625 110.757812 70.347656 114.273438 L 68.914062 103.21875 C 70.183594 104.253906 71.375 105.164062 72.464844 105.964844 C 73.460938 106.691406 74.367188 107.324219 75.152344 107.84375 C 75.121094 107.265625 75.09375 106.6875 75.066406 106.105469 L 75 106.101562 L 69.929688 42.53125 C 69.660156 42.453125 69.382812 42.367188 69.089844 42.285156 C 66.792969 41.648438 63.875 41.078125 60.886719 41.144531 L 58.746094 24.5625 C 61.628906 24.3125 64.570312 24.410156 67.492188 24.859375 C 67.835938 24.914062 68.1875 24.976562 68.535156 25.035156 L 68.09375 19.515625 L 67.917969 17.332031 L 67.375 10.507812 L 67.375 10.496094 L 66.546875 0.0742188 L 74.773438 0.0742188 C 75.023438 3.183594 77.410156 5.53125 80.394531 6.046875 C 80.710938 6.097656 81.027344 6.132812 81.351562 6.144531 C 85.777344 6.316406 90.199219 6.570312 94.617188 6.890625 C 107.554688 7.8125 120.449219 9.234375 133.359375 10.496094 C 137.816406 10.933594 142.269531 11.351562 146.730469 11.726562 C 155.722656 12.476562 164.730469 12.847656 173.746094 13.023438 C 186.746094 13.269531 199.761719 13.117188 212.765625 13.113281 C 214.519531 13.113281 216.132812 12.398438 217.320312 11.246094 C 217.5625 11.015625 217.789062 10.761719 217.992188 10.496094 C 218.769531 9.484375 219.265625 8.25 219.351562 6.914062 C 220.910156 6.859375 222.472656 6.816406 224.042969 6.816406 C 227.558594 6.804688 231.125 6.683594 234.601562 6.160156 Z M 234.601562 6.160156 "/>
<path style=" stroke:none;fill-rule:nonzero;fill:rgb(54.901963%,32.156864%,100%);fill-opacity:1;" d="M 238.625 295 L 235.144531 299.75 L 75.304688 299.75 L 71.742188 295 C 75.257812 281.933594 85.160156 272.585938 93.707031 266.679688 C 98.054688 263.675781 102.050781 261.5625 104.671875 260.304688 L 104.671875 248.449219 L 136.660156 248.449219 L 136.660156 214.246094 L 130.25 214.246094 L 130.25 204.429688 L 136.660156 204.429688 L 136.660156 184.796875 L 129.0625 184.796875 L 129.0625 174.503906 L 134.746094 174.503906 C 133.40625 174.0625 132.082031 173.585938 130.777344 173.074219 C 129.332031 172.515625 127.910156 171.90625 126.507812 171.257812 C 126.507812 171.257812 126.507812 171.253906 126.5 171.253906 C 125.90625 170.976562 125.3125 170.695312 124.722656 170.398438 C 100.332031 158.332031 83.308594 133.628906 82.191406 104.835938 L 82.125 104.835938 L 75.125 17.042969 L 74.601562 10.496094 L 73.769531 0.0742188 L 236.597656 0.0742188 L 235.773438 10.496094 L 234.640625 24.804688 L 234.613281 25.144531 L 234.613281 25.15625 L 233.222656 42.722656 L 228.035156 108.226562 L 227.953125 109.261719 L 227.890625 109.261719 L 227.707031 109.257812 C 227.285156 114.585938 226.308594 119.761719 224.84375 124.734375 C 222.90625 131.300781 220.117188 137.5 216.601562 143.207031 C 216.597656 143.210938 216.589844 143.214844 216.589844 143.21875 C 216.589844 143.226562 216.585938 143.226562 216.585938 143.230469 C 216.566406 143.253906 216.550781 143.277344 216.539062 143.304688 C 216.496094 143.367188 216.433594 143.460938 216.351562 143.589844 C 214.558594 146.464844 212.578125 149.214844 210.421875 151.816406 C 210.414062 151.828125 210.410156 151.832031 210.40625 151.835938 C 202.097656 161.875 191.273438 169.753906 178.898438 174.503906 L 179.09375 174.503906 L 179.09375 184.796875 L 170.226562 184.796875 L 170.226562 204.429688 L 177.75 204.429688 L 177.75 214.246094 L 170.226562 214.246094 L 170.226562 248.449219 L 202.523438 248.449219 L 202.523438 258.898438 C 202.546875 258.902344 231.984375 270.308594 238.625 295 Z M 238.625 295 "/>
<path style=" stroke:none;fill-rule:nonzero;fill:rgb(100%,80.392158%,82.745099%);fill-opacity:1;" d="M 225.917969 11.015625 L 209.65625 11.015625 C 210.003906 4.257812 210.234375 0.0742188 210.234375 0.0742188 L 227.019531 0.0742188 Z M 216.585938 103.726562 L 225.453125 15.621094 L 209.417969 15.621094 C 208.625 31.164062 207.433594 55.648438 206.714844 76.265625 C 206.609375 79.226562 206.515625 82.105469 206.4375 84.867188 C 206.4375 84.867188 206.457031 85.058594 206.492188 85.417969 C 205.738281 100.152344 202.550781 129.578125 189.382812 150.292969 C 186.457031 154.015625 183.058594 157.546875 179.101562 160.761719 L 179.09375 160.765625 C 210.015625 150.980469 216.585938 103.726562 216.585938 103.726562 Z M 163.414062 187.015625 L 158.617188 194.296875 L 158.617188 203.394531 L 163.414062 202.945312 Z M 158.617188 245.710938 L 161.785156 246.457031 L 163.414062 246.84375 L 163.414062 218.679688 L 158.617188 220.578125 Z M 194.429688 260.683594 L 194.429688 248.449219 L 127.109375 248.449219 L 128.976562 250.824219 L 179.09375 250.824219 L 179.09375 259.710938 C 179.09375 259.710938 214.703125 275.050781 216.585938 297.375 L 228.601562 297.375 C 228.601562 297.375 220.429688 270.070312 194.429688 260.683594 Z M 161.785156 206.171875 L 161.785156 215.902344 L 168.671875 215.902344 L 168.671875 203.394531 L 162.742188 204.285156 L 139.246094 203.394531 L 140.648438 206.171875 Z M 161.785156 206.171875 "/>
<path style=" stroke:none;fill-rule:nonzero;fill:rgb(45.882353%,18.431373%,73.333335%);fill-opacity:1;" d="M 73.769531 24.429688 L 73.769531 39.207031 L 82.21875 119.71875 C 82.21875 119.71875 81.054688 121.273438 81.878906 123.039062 C 81.492188 123.414062 81.15625 123.839844 80.867188 124.296875 C 80.195312 125.359375 79.816406 126.597656 79.824219 127.867188 C 79.828125 128.429688 79.914062 128.996094 80.082031 129.5625 C 81.101562 132.984375 83.132812 135.71875 84.890625 138.757812 C 86.515625 141.554688 87.421875 144.664062 89.269531 147.351562 C 93.269531 153.175781 99.265625 157.664062 104.59375 162.1875 C 106.460938 163.765625 108.855469 164.445312 111.046875 163.886719 L 113.058594 165.953125 L 124.972656 174.1875 L 128.976562 174.742188 L 129.0625 174.753906 L 129.0625 184.796875 L 136.660156 184.796875 L 136.660156 204.429688 L 130.25 204.429688 L 130.25 214.246094 L 136.660156 214.246094 L 136.660156 248.445312 L 170.226562 248.445312 L 145 242.496094 L 145 229.707031 L 170.226562 218.996094 L 170.226562 214.246094 L 141.835938 214.246094 L 141.835938 204.429688 L 170.226562 204.429688 L 150.316406 200.085938 C 157.492188 198.246094 164.648438 195.039062 170.226562 189.589844 L 170.226562 184.796875 L 174.273438 184.796875 C 175.75 182.671875 177.023438 180.296875 178.039062 177.648438 C 178.429688 176.640625 178.78125 175.59375 179.09375 174.503906 L 178.898438 174.503906 C 191.273438 169.75 202.097656 161.871094 210.40625 151.835938 C 210.414062 151.828125 210.414062 151.824219 210.417969 151.816406 C 213.546875 147.804688 215.660156 144.648438 216.351562 143.589844 C 216.433594 143.460938 216.496094 143.367188 216.539062 143.304688 C 216.558594 143.269531 216.570312 143.246094 216.585938 143.226562 C 205.136719 156.636719 191.667969 164.78125 181.929688 169.382812 C 140.363281 182.765625 112.339844 147.945312 112.328125 147.929688 C 105.121094 133.414062 104.308594 119.242188 104.308594 119.242188 L 95.421875 16.214844 L 173.746094 13.023438 L 217.324219 11.246094 L 233.847656 10.574219 L 235.773438 10.496094 L 94.925781 10.496094 L 94.617188 6.890625 L 94.027344 0.0742188 L 72.480469 0.0742188 L 72.480469 10.496094 L 67.375 10.496094 L 67.375 10.507812 L 67.917969 17.332031 L 72.824219 17.132812 Z M 112.335938 147.949219 C 112.335938 147.949219 112.332031 147.945312 112.332031 147.941406 L 112.332031 147.933594 Z M 263.121094 62.472656 C 263.09375 66.742188 262.535156 71.488281 260.964844 76.265625 L 260.96875 76.265625 C 257.429688 91.117188 237.257812 118.988281 237.257812 118.988281 C 231.328125 122.46875 226.566406 124.175781 224.847656 124.734375 C 225.84375 123.554688 227.414062 112.691406 227.890625 109.261719 C 227.984375 108.609375 228.035156 108.226562 228.035156 108.226562 C 230.113281 106.859375 233.332031 104.589844 236.890625 101.484375 C 237.796875 100.703125 238.726562 99.859375 239.664062 98.960938 C 248.363281 90.648438 257.878906 77.777344 257.878906 61.261719 C 257.878906 47.179688 251.90625 42.425781 245.496094 41.375 C 244.492188 41.214844 243.480469 41.140625 242.484375 41.132812 C 238.96875 41.125 235.582031 41.960938 233.21875 42.722656 L 228.035156 108.226562 L 233.210938 42.726562 L 234.601562 25.15625 L 234.609375 25.15625 L 234.613281 25.144531 L 234.632812 25.144531 L 234.640625 24.804688 C 236.15625 24.542969 238.136719 24.46875 240.066406 24.46875 L 240.09375 24.46875 C 243.445312 24.492188 246.644531 24.765625 247.039062 24.796875 C 247.070312 24.804688 247.082031 24.804688 247.082031 24.804688 C 246.828125 27.457031 246.441406 31.539062 245.960938 36.546875 C 249.949219 37.210938 257.289062 39.328125 260.648438 45.949219 L 260.648438 45.941406 C 260.648438 45.941406 260.652344 45.953125 260.660156 45.96875 C 261.195312 47.035156 261.636719 48.210938 261.9375 49.523438 C 263.023438 52.796875 263.816406 57.21875 263.125 62.480469 Z M 104.089844 295 L 238.625 295 L 235.144531 299.75 L 75.304688 299.75 L 71.742188 295 C 75.257812 281.933594 85.160156 272.585938 93.707031 266.679688 C 98.054688 263.675781 102.050781 261.5625 104.671875 260.304688 L 104.671875 248.449219 L 130.25 248.449219 L 130.25 259.53125 L 202.523438 259.53125 L 109.214844 272.832031 C 109.214844 272.832031 102.613281 285.671875 104.089844 295 Z M 104.089844 295 "/>
<path style=" stroke:none;fill-rule:nonzero;fill:rgb(29.019609%,18.039216%,43.529412%);fill-opacity:1;" d="M 137.132812 195.203125 L 136.660156 184.796875 L 170.226562 184.796875 Z M 104.671875 260.304688 C 102.050781 261.5625 98.054688 263.675781 93.707031 266.679688 C 85.160156 272.585938 75.257812 281.933594 71.742188 295 L 75.304688 299.75 L 107 299.75 L 104.089844 295 L 88.3125 295 C 85.996094 285.550781 93.5625 276.710938 101.304688 270.433594 C 108.355469 264.710938 115.554688 261.117188 115.554688 261.117188 L 115.554688 248.449219 L 104.675781 248.449219 L 104.675781 260.304688 Z M 137.132812 223.75 L 170.222656 214.246094 L 137.132812 214.246094 Z M 137.117188 175.871094 C 135.75 175.480469 134.414062 175.023438 133.109375 174.503906 C 131.605469 173.910156 130.144531 173.234375 128.71875 172.488281 C 128.71875 172.488281 128.710938 172.488281 128.707031 172.488281 C 128.703125 172.488281 128.703125 172.484375 128.699219 172.484375 C 127.957031 172.09375 127.230469 171.6875 126.507812 171.257812 C 126.503906 171.257812 126.503906 171.253906 126.5 171.253906 C 125.535156 170.6875 124.59375 170.089844 123.667969 169.460938 C 123.664062 169.460938 123.660156 169.453125 123.65625 169.449219 C 123.648438 169.449219 123.648438 169.445312 123.644531 169.441406 C 123.640625 169.4375 123.628906 169.429688 123.625 169.425781 C 119.917969 166.910156 116.515625 163.941406 113.414062 160.742188 C 92.386719 137.914062 89.171875 113.066406 88.757812 108.699219 L 81.269531 16.789062 L 81.15625 15.414062 L 157.273438 10.496094 L 80.757812 10.496094 L 80.394531 6.046875 L 79.90625 0.0742188 L 66.546875 0.0742188 L 67.375 10.496094 L 67.375 10.507812 L 67.917969 17.332031 L 68.09375 19.515625 L 68.535156 25.035156 C 68.1875 24.972656 67.835938 24.914062 67.492188 24.859375 C 68.027344 29.828125 68.574219 35.601562 69.089844 42.28125 C 69.382812 42.363281 69.660156 42.449219 69.933594 42.53125 L 75 106.101562 L 75.066406 106.105469 C 75.09375 106.6875 75.117188 107.265625 75.152344 107.84375 C 74.367188 107.320312 73.460938 106.691406 72.464844 105.960938 C 72.824219 109.621094 73.300781 113.089844 73.878906 116.371094 C 74.113281 117.679688 74.355469 118.964844 74.621094 120.210938 C 74.84375 121.296875 75.082031 122.359375 75.332031 123.402344 C 76.417969 123.84375 77.324219 124.179688 78.023438 124.425781 C 78.382812 125.671875 78.773438 126.902344 79.195312 128.117188 C 87.015625 150.710938 105.128906 168.503906 127.929688 175.875 L 137.132812 175.875 C 137.125 175.875 137.121094 175.871094 137.117188 175.871094 Z M 137.117188 175.871094 "/>
</g>
</svg>
