<?xml version="1.0" encoding="UTF-8"?>
<svg xmlns="http://www.w3.org/2000/svg" xmlns:xlink="http://www.w3.org/1999/xlink" width="300px" height="300px" viewBox="0 0 300 300" version="1.1">
<defs>
<clipPath id="clip1">
  <path d="M 24.390625 0 L 275.566406 0 L 275.566406 299.925781 L 24.390625 299.925781 Z M 24.390625 0 "/>
</clipPath>
<clipPath id="clip2">
  <path d="M 37.640625 22.398438 L 251.601562 22.398438 L 251.601562 299.925781 L 37.640625 299.925781 Z M 37.640625 22.398438 "/>
</clipPath>
<clipPath id="clip3">
  <path d="M 39.601562 0 L 275.566406 0 L 275.566406 276.394531 L 39.601562 276.394531 Z M 39.601562 0 "/>
</clipPath>
</defs>
<g id="surface1">
<g clip-path="url(#clip1)" clip-rule="nonzero">
<path style=" stroke:none;fill-rule:nonzero;fill:rgb(21.176471%,10.588235%,41.176471%);fill-opacity:1;" d="M 248.722656 298.722656 L 55.050781 286.132812 L 125.144531 285.886719 L 125.148438 285.890625 C 125.15625 285.890625 125.164062 285.886719 125.164062 285.886719 L 211.402344 285.585938 C 211.429688 285.804688 211.453125 286.019531 211.472656 286.242188 C 211.957031 286.183594 212.4375 286.132812 212.921875 286.074219 C 212.851562 285.917969 212.796875 285.660156 212.71875 285.578125 L 239.976562 285.484375 L 241.921875 285.484375 C 244.3125 285.484375 246.605469 285.050781 248.722656 284.253906 Z M 78.945312 0.00390625 L 77.785156 13.566406 L 64.746094 12.453125 L 62.617188 37.390625 L 31.976562 38.078125 L 24.390625 286.242188 L 37.976562 286.191406 L 249.273438 299.925781 L 249.308594 299.925781 C 249.453125 299.925781 249.597656 299.875 249.703125 299.765625 C 249.824219 299.664062 249.886719 299.503906 249.886719 299.347656 L 249.886719 283.777344 C 256.660156 280.730469 261.371094 273.933594 261.371094 266.035156 L 261.371094 182.753906 L 275.566406 16.824219 L 78.945312 0.00390625 "/>
</g>
<g clip-path="url(#clip2)" clip-rule="nonzero">
<path style=" stroke:none;fill-rule:nonzero;fill:rgb(9.803922%,7.843138%,16.862746%);fill-opacity:1;" d="M 196.363281 25.140625 C 201.746094 25.140625 202.402344 30.355469 202.457031 30.949219 C 202.527344 31.695312 203.1875 32.25 203.933594 32.179688 C 204.679688 32.113281 205.234375 31.453125 205.171875 30.707031 C 205.007812 28.875 204.0625 26.007812 201.734375 24.167969 C 200.421875 23.128906 198.671875 22.417969 196.363281 22.417969 C 194.703125 22.417969 193.320312 22.773438 192.171875 23.351562 C 188.703125 25.09375 187.433594 28.84375 187.433594 30.824219 L 187.433594 71.515625 C 187.433594 71.53125 187.433594 71.550781 187.433594 71.570312 C 187.550781 74.542969 189.566406 80.171875 196.363281 80.171875 C 198.875 80.171875 200.929688 79.382812 202.476562 77.832031 C 205.25 75.050781 205.265625 70.828125 205.265625 70.65625 L 205.28125 52.398438 L 205.289062 41.554688 C 205.289062 40.800781 204.679688 40.1875 203.929688 40.1875 C 203.929688 40.1875 203.929688 40.1875 203.925781 40.1875 C 203.175781 40.1875 202.566406 40.796875 202.566406 41.550781 L 202.554688 52.589844 L 202.539062 70.65625 C 202.539062 71.351562 202.351562 77.445312 196.363281 77.445312 C 190.667969 77.445312 190.195312 72.179688 190.15625 71.480469 L 190.15625 30.824219 C 190.15625 29.308594 191.628906 25.140625 196.363281 25.140625 Z M 154.070312 80.542969 C 154.070312 80.542969 154.074219 80.542969 154.078125 80.542969 L 188.210938 79.683594 C 188.425781 79.679688 188.597656 79.5 188.59375 79.285156 C 188.585938 79.074219 188.414062 78.90625 188.203125 78.90625 C 188.199219 78.90625 188.195312 78.90625 188.191406 78.90625 L 154.058594 79.765625 C 153.84375 79.769531 153.671875 79.949219 153.679688 80.164062 C 153.683594 80.375 153.859375 80.542969 154.070312 80.542969 Z M 153.539062 86.046875 C 153.542969 86.046875 153.542969 86.046875 153.546875 86.046875 L 192.054688 84.808594 C 192.269531 84.800781 192.441406 84.621094 192.433594 84.40625 C 192.425781 84.195312 192.253906 84.03125 192.046875 84.03125 C 192.039062 84.03125 192.035156 84.03125 192.03125 84.03125 L 153.523438 85.273438 C 153.308594 85.277344 153.140625 85.457031 153.148438 85.671875 C 153.152344 85.882812 153.324219 86.046875 153.539062 86.046875 Z M 197.054688 93.46875 L 153.265625 89.625 C 153.054688 89.605469 152.859375 89.761719 152.839844 89.980469 C 152.824219 90.191406 152.980469 90.382812 153.195312 90.398438 L 196.984375 94.242188 C 196.996094 94.242188 197.007812 94.242188 197.019531 94.242188 C 197.21875 94.242188 197.390625 94.089844 197.40625 93.886719 C 197.425781 93.675781 197.265625 93.484375 197.054688 93.46875 Z M 142.710938 130.984375 L 142.710938 130.988281 L 224.800781 135.351562 L 214.6875 52.960938 L 214.683594 52.960938 L 220.023438 128.976562 Z M 242.308594 244.476562 C 242.632812 244.476562 242.890625 244.21875 242.890625 243.894531 L 242.890625 168.039062 C 242.890625 167.71875 242.632812 167.457031 242.308594 167.457031 C 241.988281 167.457031 241.722656 167.71875 241.722656 168.039062 L 241.722656 243.894531 C 241.722656 244.21875 241.988281 244.476562 242.308594 244.476562 Z M 246.195312 253.621094 C 246.195312 253.941406 246.457031 254.203125 246.78125 254.203125 C 247.105469 254.203125 247.363281 253.941406 247.363281 253.621094 L 247.363281 168.03125 C 247.363281 167.710938 247.105469 167.445312 246.78125 167.445312 C 246.457031 167.445312 246.195312 167.710938 246.195312 168.03125 Z M 251.449219 168.03125 C 251.449219 167.710938 251.1875 167.445312 250.867188 167.445312 C 250.542969 167.445312 250.28125 167.710938 250.28125 168.03125 L 250.28125 265.679688 C 250.28125 266 250.542969 266.265625 250.867188 266.265625 C 251.1875 266.265625 251.449219 266 251.449219 265.679688 Z M 249.886719 283.777344 L 249.886719 299.347656 C 249.886719 299.503906 249.824219 299.664062 249.703125 299.765625 C 249.597656 299.875 249.453125 299.925781 249.308594 299.925781 L 249.273438 299.925781 L 37.976562 286.191406 L 55.050781 286.132812 L 248.722656 298.722656 L 248.722656 284.253906 C 249.117188 284.109375 249.511719 283.945312 249.886719 283.777344 "/>
</g>
<g clip-path="url(#clip3)" clip-rule="nonzero">
<path style=" stroke:none;fill-rule:nonzero;fill:rgb(54.901963%,32.156864%,100%);fill-opacity:1;" d="M 40.269531 276.125 C 40.273438 276.125 40.28125 276.125 40.285156 276.125 C 40.601562 276.125 40.859375 275.875 40.867188 275.554688 L 42.304688 217.859375 C 42.222656 217.734375 42.171875 217.617188 42.191406 217.546875 C 42.226562 217.4375 42.273438 217.324219 42.320312 217.210938 L 42.582031 206.640625 C 42.515625 206.769531 42.445312 206.894531 42.375 207.03125 C 42.015625 206.8125 41.710938 206.628906 41.421875 206.457031 L 39.703125 275.527344 C 39.691406 275.847656 39.949219 276.117188 40.269531 276.125 Z M 42.636719 203.71875 C 42.644531 203.722656 42.652344 203.726562 42.65625 203.730469 L 44.484375 130.328125 C 44.097656 130.351562 43.707031 130.347656 43.316406 130.320312 L 41.441406 205.664062 C 41.859375 204.683594 42.242188 204.042969 42.636719 203.71875 Z M 46.59375 45.621094 C 46.601562 45.296875 46.347656 45.03125 46.023438 45.023438 C 45.695312 45.007812 45.433594 45.269531 45.425781 45.59375 L 43.34375 129.144531 C 43.703125 129.03125 44.09375 128.90625 44.523438 128.777344 Z M 197.40625 93.886719 C 197.425781 93.671875 197.269531 93.484375 197.054688 93.464844 L 153.261719 89.625 C 153.050781 89.601562 152.863281 89.761719 152.84375 89.976562 C 152.828125 90.1875 152.984375 90.378906 153.199219 90.394531 L 196.988281 94.238281 C 197 94.246094 197.003906 94.246094 197.015625 94.246094 C 197.21875 94.246094 197.390625 94.089844 197.40625 93.886719 Z M 153.148438 85.671875 C 153.152344 85.882812 153.324219 86.050781 153.539062 86.050781 C 153.539062 86.050781 153.542969 86.050781 153.550781 86.050781 L 192.054688 84.808594 C 192.269531 84.796875 192.4375 84.621094 192.433594 84.40625 C 192.425781 84.191406 192.257812 84.03125 192.039062 84.03125 C 192.039062 84.03125 192.035156 84.03125 192.027344 84.03125 L 153.523438 85.269531 C 153.3125 85.277344 153.140625 85.457031 153.148438 85.671875 Z M 153.675781 80.160156 C 153.683594 80.375 153.859375 80.539062 154.070312 80.539062 C 154.074219 80.539062 154.074219 80.539062 154.078125 80.539062 L 188.210938 79.683594 C 188.425781 79.675781 188.597656 79.5 188.589844 79.285156 C 188.585938 79.070312 188.414062 78.90625 188.199219 78.90625 L 188.191406 78.90625 L 154.0625 79.765625 C 153.839844 79.769531 153.675781 79.945312 153.675781 80.160156 Z M 220.027344 128.976562 L 142.710938 130.984375 L 140.605469 131.042969 L 137.761719 57.140625 L 187.433594 53.652344 L 187.433594 71.515625 C 187.433594 71.53125 187.433594 71.550781 187.4375 71.570312 C 187.550781 74.542969 189.566406 80.167969 196.363281 80.167969 C 198.875 80.167969 200.929688 79.378906 202.480469 77.832031 C 205.25 75.054688 205.261719 70.828125 205.261719 70.65625 L 205.28125 52.398438 L 214.59375 51.75 L 214.683594 52.964844 Z M 196.363281 77.445312 C 202.351562 77.445312 202.539062 71.351562 202.539062 70.65625 L 202.554688 52.589844 L 190.15625 53.460938 L 190.15625 71.480469 C 190.195312 72.179688 190.667969 77.445312 196.363281 77.445312 Z M 192.171875 23.351562 L 77.78125 13.566406 L 78.945312 0.00390625 L 275.5625 16.824219 L 261.371094 182.753906 L 261.371094 172.4375 C 261.371094 164.820312 256.988281 158.226562 250.613281 155.035156 L 261.371094 29.269531 L 201.734375 24.167969 C 200.421875 23.128906 198.671875 22.417969 196.363281 22.417969 C 194.703125 22.417969 193.320312 22.773438 192.171875 23.351562 "/>
</g>
<path style=" stroke:none;fill-rule:nonzero;fill:rgb(100%,82.745099%,76.078433%);fill-opacity:1;" d="M 122.710938 74.601562 C 122.542969 74.628906 122.375 74.65625 122.207031 74.679688 C 122.265625 74.992188 122.324219 75.304688 122.382812 75.617188 C 122.539062 75.59375 122.695312 75.566406 122.851562 75.539062 C 122.804688 75.226562 122.757812 74.914062 122.710938 74.601562 Z M 41.25 42.140625 C 41.417969 42.132812 41.722656 42.128906 41.722656 42.117188 C 41.734375 41.792969 41.710938 41.472656 41.695312 41.148438 C 41.535156 41.15625 41.371094 41.160156 41.207031 41.167969 C 41.222656 41.492188 41.234375 41.816406 41.25 42.140625 Z M 66.917969 82.382812 C 66.820312 82.351562 66.535156 82.632812 66.492188 82.804688 C 66.46875 82.925781 66.71875 83.105469 66.894531 83.320312 C 67.125 83.125 67.285156 82.988281 67.445312 82.851562 C 67.273438 82.6875 67.121094 82.453125 66.917969 82.382812 Z M 256.90625 212.277344 C 256.734375 212.191406 256.554688 212.101562 256.382812 212.015625 C 256.246094 212.445312 256.113281 212.875 255.976562 213.308594 C 256.113281 213.363281 256.242188 213.410156 256.378906 213.460938 C 256.554688 213.066406 256.730469 212.671875 256.90625 212.277344 Z M 86.527344 125.480469 C 86.527344 125.066406 86.527344 124.652344 86.527344 124.238281 C 86.40625 124.238281 86.292969 124.238281 86.175781 124.238281 C 86.175781 124.652344 86.175781 125.066406 86.175781 125.480469 C 86.292969 125.480469 86.40625 125.480469 86.527344 125.480469 Z M 131.140625 158.53125 C 131.324219 158.511719 131.507812 158.488281 131.6875 158.464844 C 131.632812 158.046875 131.574219 157.625 131.515625 157.203125 C 131.339844 157.226562 131.167969 157.25 130.992188 157.273438 C 131.042969 157.691406 131.09375 158.113281 131.140625 158.53125 Z M 250.054688 274.199219 C 250.082031 274.378906 250.414062 274.664062 250.570312 274.640625 C 250.765625 274.609375 251.035156 274.320312 251.0625 274.117188 C 251.085938 273.90625 250.863281 273.667969 250.667969 273.285156 C 250.296875 273.804688 250.03125 274.023438 250.054688 274.199219 Z M 56.367188 203.335938 C 56.367188 202.960938 56.367188 202.585938 56.367188 202.210938 C 56.199219 202.203125 56.027344 202.199219 55.859375 202.195312 C 55.859375 202.570312 55.851562 202.945312 55.878906 203.316406 C 55.882812 203.335938 56.199219 203.328125 56.367188 203.335938 Z M 134.546875 79.429688 C 134.539062 79.390625 134.238281 79.386719 134.070312 79.367188 C 134.03125 79.695312 133.992188 80.03125 133.953125 80.367188 C 134.15625 80.382812 134.363281 80.398438 134.570312 80.414062 C 134.570312 80.085938 134.585938 79.753906 134.546875 79.429688 Z M 150.207031 145.75 C 150.023438 145.738281 149.835938 145.726562 149.65625 145.710938 C 149.628906 146.136719 149.601562 146.554688 149.578125 146.976562 C 149.734375 146.988281 149.890625 147 150.042969 147.011719 C 150.097656 146.589844 150.152344 146.167969 150.207031 145.75 Z M 77.152344 77.886719 C 77.140625 78.054688 77.449219 78.390625 77.601562 78.382812 C 77.808594 78.375 78.121094 78.125 78.15625 77.9375 C 78.191406 77.765625 77.910156 77.535156 77.695312 77.226562 C 77.445312 77.507812 77.167969 77.6875 77.152344 77.886719 Z M 212.679688 141.023438 C 212.675781 141.003906 212.230469 140.992188 212.226562 141.011719 C 212.183594 141.34375 212.171875 141.679688 212.152344 142.015625 C 212.335938 142.015625 212.515625 142.023438 212.699219 142.027344 C 212.699219 141.691406 212.710938 141.355469 212.679688 141.023438 Z M 149.992188 261.292969 C 150.042969 260.835938 150.089844 260.378906 150.140625 259.917969 C 149.972656 259.902344 149.804688 259.886719 149.636719 259.867188 C 149.589844 260.328125 149.539062 260.78125 149.484375 261.242188 C 149.65625 261.257812 149.824219 261.277344 149.992188 261.292969 Z M 72.570312 159.34375 C 72.171875 159.503906 71.777344 159.664062 71.378906 159.820312 C 71.488281 160.015625 71.601562 160.210938 71.710938 160.402344 C 72.070312 160.203125 72.425781 160 72.78125 159.800781 C 72.710938 159.648438 72.640625 159.496094 72.570312 159.34375 Z M 198.746094 164.300781 C 198.941406 164.332031 199.175781 164.082031 199.5 163.890625 C 199.210938 163.625 199.03125 163.332031 198.828125 163.316406 C 198.65625 163.300781 198.3125 163.589844 198.300781 163.765625 C 198.289062 163.945312 198.5625 164.277344 198.746094 164.300781 Z M 187.421875 247.140625 C 187.25 247.109375 187.078125 247.078125 186.90625 247.050781 C 186.847656 247.414062 186.78125 247.78125 186.75 248.148438 C 186.75 248.160156 187.199219 248.238281 187.203125 248.226562 C 187.292969 247.867188 187.355469 247.503906 187.421875 247.140625 Z M 228.171875 128.929688 C 228.019531 128.949219 227.867188 128.960938 227.714844 128.976562 C 227.734375 129.316406 227.757812 129.65625 227.777344 129.996094 C 227.96875 129.96875 228.164062 129.941406 228.359375 129.914062 C 228.296875 129.585938 228.234375 129.257812 228.171875 128.929688 Z M 53.085938 120.398438 C 53.011719 120.761719 52.941406 121.125 52.867188 121.488281 C 53.074219 121.523438 53.28125 121.558594 53.488281 121.59375 C 53.515625 121.230469 53.558594 120.867188 53.550781 120.5 C 53.546875 120.464844 53.25 120.433594 53.085938 120.398438 Z M 160.546875 240.527344 C 160.472656 240.859375 160.429688 241.203125 160.382812 241.546875 C 160.574219 241.578125 160.769531 241.605469 160.960938 241.632812 C 160.984375 241.285156 161.015625 240.9375 161 240.589844 C 161 240.5625 160.546875 240.511719 160.546875 240.527344 Z M 71.472656 237.332031 C 71.589844 237.328125 71.707031 237.320312 71.828125 237.316406 C 71.828125 236.8125 71.828125 236.3125 71.828125 235.8125 C 71.679688 235.808594 71.535156 235.808594 71.390625 235.804688 C 71.417969 236.3125 71.445312 236.820312 71.472656 237.332031 Z M 149.042969 235.242188 C 149.46875 235.28125 149.890625 235.320312 150.316406 235.359375 C 150.339844 235.214844 150.363281 235.070312 150.390625 234.925781 C 149.964844 234.828125 149.539062 234.730469 149.113281 234.628906 C 149.09375 234.835938 149.066406 235.039062 149.042969 235.242188 Z M 222.71875 79.910156 C 222.785156 80.046875 222.851562 80.179688 222.917969 80.3125 C 223.355469 80.125 223.792969 79.933594 224.230469 79.746094 C 224.15625 79.585938 224.078125 79.421875 224 79.257812 C 223.574219 79.476562 223.148438 79.695312 222.71875 79.910156 Z M 240.5625 277.757812 C 240.707031 277.765625 240.851562 277.765625 241 277.773438 C 241.023438 277.445312 241.0625 277.117188 241.046875 276.792969 C 241.046875 276.769531 240.679688 276.761719 240.480469 276.742188 C 240.507812 277.082031 240.53125 277.421875 240.5625 277.757812 Z M 153.828125 178.921875 C 154.050781 178.902344 154.257812 178.695312 154.601562 178.492188 C 154.28125 178.253906 154.074219 177.988281 153.878906 177.992188 C 153.710938 177.996094 153.488281 178.300781 153.425781 178.507812 C 153.394531 178.609375 153.695312 178.933594 153.828125 178.921875 Z M 228.4375 270.027344 C 228.4375 270.21875 228.433594 270.40625 228.429688 270.589844 C 228.742188 270.589844 229.058594 270.589844 229.375 270.589844 C 229.347656 270.390625 229.347656 270.027344 229.285156 270.015625 C 229.015625 269.960938 228.71875 270.015625 228.4375 270.027344 Z M 230.921875 92.726562 C 230.355469 92.25 230.167969 92.09375 229.976562 91.933594 C 229.835938 92.136719 229.582031 92.347656 229.589844 92.546875 C 229.59375 92.726562 229.871094 93.019531 230.054688 93.042969 C 230.289062 93.070312 230.546875 92.875 230.921875 92.726562 Z M 80.738281 205.382812 C 80.789062 204.972656 80.839844 204.558594 80.890625 204.144531 C 80.699219 204.117188 80.515625 204.085938 80.324219 204.058594 C 80.238281 204.457031 80.152344 204.855469 80.066406 205.257812 C 80.289062 205.296875 80.515625 205.34375 80.738281 205.382812 Z M 65.515625 275.453125 C 65.589844 275.878906 65.660156 276.300781 65.734375 276.71875 C 65.882812 276.699219 66.035156 276.679688 66.1875 276.660156 C 66.15625 276.230469 66.125 275.804688 66.09375 275.375 C 65.902344 275.402344 65.710938 275.429688 65.515625 275.453125 Z M 80.179688 167.695312 C 80.21875 167.898438 80.503906 168.1875 80.699219 168.195312 C 80.875 168.207031 81.070312 167.894531 81.347656 167.644531 C 81.03125 167.429688 80.820312 167.179688 80.601562 167.179688 C 80.449219 167.175781 80.148438 167.542969 80.179688 167.695312 Z M 196.796875 155.597656 C 197 155.613281 197.226562 155.363281 197.671875 155.085938 C 197.347656 154.863281 197.140625 154.609375 196.929688 154.609375 C 196.742188 154.605469 196.425781 154.867188 196.402344 155.039062 C 196.382812 155.21875 196.640625 155.578125 196.796875 155.597656 Z M 228.292969 168.195312 C 228.28125 168.164062 227.90625 168.257812 227.703125 168.289062 C 227.78125 168.617188 227.859375 168.945312 227.9375 169.273438 C 228.125 169.238281 228.3125 169.203125 228.5 169.167969 C 228.441406 168.84375 228.398438 168.507812 228.292969 168.195312 Z M 196.585938 278.511719 C 196.585938 278.9375 196.585938 279.363281 196.585938 279.789062 C 196.753906 279.78125 196.921875 279.777344 197.085938 279.769531 C 197.058594 279.34375 197.023438 278.914062 196.992188 278.488281 C 196.859375 278.496094 196.71875 278.503906 196.585938 278.511719 Z M 112.375 59.1875 C 112.402344 58.953125 112.171875 58.691406 111.945312 58.222656 C 111.59375 58.886719 111.351562 59.128906 111.382812 59.324219 C 111.417969 59.53125 111.71875 59.6875 111.902344 59.867188 C 112.070312 59.640625 112.347656 59.425781 112.375 59.1875 Z M 73.1875 57.8125 C 73.628906 57.699219 74.070312 57.589844 74.515625 57.476562 C 74.476562 57.3125 74.429688 57.148438 74.386719 56.984375 C 73.945312 57.101562 73.5 57.214844 73.058594 57.332031 C 73.101562 57.492188 73.144531 57.652344 73.1875 57.8125 Z M 235.207031 251.019531 C 235.003906 251.023438 234.796875 251.03125 234.59375 251.035156 C 234.59375 251.375 234.59375 251.71875 234.59375 252.058594 C 234.796875 252.046875 235.175781 252.066406 235.179688 252.027344 C 235.226562 251.695312 235.207031 251.355469 235.207031 251.019531 Z M 87.414062 231.039062 C 87.539062 230.597656 87.667969 230.160156 87.792969 229.71875 C 87.585938 229.6875 87.382812 229.65625 87.171875 229.625 C 87.101562 230.066406 87.027344 230.511719 86.953125 230.953125 C 87.109375 230.984375 87.261719 231.011719 87.414062 231.039062 Z M 197 225.609375 C 196.84375 225.601562 196.6875 225.589844 196.53125 225.582031 C 196.484375 225.953125 196.441406 226.328125 196.394531 226.703125 C 196.597656 226.738281 196.796875 226.773438 197 226.804688 C 197 226.40625 197 226.007812 197 225.609375 Z M 84.3125 253.203125 C 84.472656 253.203125 84.636719 253.203125 84.796875 253.203125 C 84.835938 252.882812 84.914062 252.554688 84.886719 252.238281 C 84.882812 252.1875 84.4375 252.171875 84.199219 252.136719 C 84.234375 252.492188 84.273438 252.84375 84.3125 253.203125 Z M 233.710938 146.453125 C 233.632812 146.867188 233.558594 147.277344 233.484375 147.691406 C 233.671875 147.726562 233.863281 147.765625 234.050781 147.800781 C 234.136719 147.390625 234.21875 146.980469 234.300781 146.570312 C 234.105469 146.53125 233.90625 146.492188 233.710938 146.453125 Z M 143.414062 217.265625 C 143.207031 217.25 143.003906 217.238281 142.796875 217.222656 C 142.777344 217.566406 142.757812 217.902344 142.734375 218.246094 C 142.929688 218.261719 143.117188 218.273438 143.3125 218.292969 C 143.34375 217.949219 143.378906 217.609375 143.414062 217.265625 Z M 99.863281 62.964844 C 99.945312 63.414062 99.996094 63.875 99.996094 64.347656 C 99.996094 64.449219 99.980469 64.550781 99.980469 64.648438 C 100.164062 64.621094 100.347656 64.589844 100.53125 64.558594 C 100.453125 64.007812 100.375 63.449219 100.300781 62.894531 C 100.152344 62.917969 100.007812 62.941406 99.863281 62.964844 Z M 123.535156 60.539062 C 123.351562 60.875 123.171875 61.210938 122.984375 61.542969 C 123.164062 61.644531 123.34375 61.746094 123.523438 61.847656 C 123.695312 61.542969 123.902344 61.25 124.019531 60.921875 C 124.039062 60.859375 123.707031 60.671875 123.535156 60.539062 Z M 68.6875 65.292969 C 68.65625 65.382812 69.15625 65.773438 69.199219 65.742188 C 69.464844 65.542969 69.71875 65.289062 69.855469 65 C 69.898438 64.910156 69.566406 64.640625 69.300781 64.335938 C 69.035156 64.722656 68.789062 64.984375 68.6875 65.292969 Z M 143.515625 275.132812 C 143.5625 275.265625 143.609375 275.402344 143.65625 275.539062 C 144.164062 275.390625 144.671875 275.242188 145.179688 275.089844 C 145.125 274.90625 145.066406 274.726562 145.011719 274.542969 C 144.511719 274.738281 144.011719 274.933594 143.515625 275.132812 Z M 71.585938 45.648438 C 72.105469 45.773438 72.625 45.902344 73.140625 46.03125 C 73.179688 45.84375 73.21875 45.65625 73.261719 45.46875 C 72.734375 45.375 72.210938 45.28125 71.6875 45.183594 C 71.652344 45.339844 71.617188 45.492188 71.585938 45.648438 Z M 165.835938 172.03125 C 165.640625 172.011719 165.28125 171.953125 165.277344 171.980469 C 165.183594 172.34375 165.144531 172.714844 165.09375 173.085938 C 165.277344 173.117188 165.460938 173.144531 165.640625 173.175781 C 165.707031 172.796875 165.769531 172.414062 165.835938 172.03125 Z M 209.8125 179.941406 C 209.800781 179.898438 209.363281 179.957031 209.121094 179.960938 C 209.191406 180.304688 209.257812 180.644531 209.320312 180.984375 C 209.515625 180.96875 209.703125 180.953125 209.898438 180.9375 C 209.878906 180.601562 209.890625 180.261719 209.8125 179.941406 Z M 80.09375 52.132812 C 80.304688 52.171875 80.515625 52.210938 80.730469 52.246094 C 80.757812 51.800781 80.789062 51.355469 80.816406 50.910156 C 80.652344 50.890625 80.492188 50.871094 80.335938 50.851562 C 80.25 51.277344 80.171875 51.707031 80.09375 52.132812 Z M 111.769531 197.109375 C 112.246094 197.230469 112.722656 197.355469 113.199219 197.476562 C 113.246094 197.292969 113.292969 197.101562 113.339844 196.914062 C 112.863281 196.789062 112.386719 196.664062 111.914062 196.539062 C 111.867188 196.730469 111.816406 196.921875 111.769531 197.109375 Z M 192.707031 278.640625 L 192.707031 279.75 C 192.867188 279.757812 193.023438 279.765625 193.1875 279.773438 C 193.226562 279.359375 193.265625 278.945312 193.308594 278.527344 C 193.273438 278.527344 193.242188 278.527344 193.210938 278.523438 C 193.042969 278.570312 192.878906 278.609375 192.707031 278.640625 Z M 184.734375 188.628906 C 185.007812 188.605469 185.265625 188.417969 185.710938 188.21875 C 185.328125 187.925781 185.082031 187.617188 184.929688 187.65625 C 184.679688 187.726562 184.488281 188.019531 184.273438 188.21875 C 184.429688 188.367188 184.59375 188.640625 184.734375 188.628906 Z M 63.425781 40.382812 C 63.375 40.015625 63.347656 39.644531 63.25 39.289062 C 63.242188 39.25 62.867188 39.304688 62.660156 39.316406 C 62.6875 39.6875 62.71875 40.054688 62.753906 40.421875 C 62.976562 40.410156 63.203125 40.398438 63.425781 40.382812 Z M 234.421875 61.015625 C 234.445312 61.214844 234.46875 61.421875 234.492188 61.625 C 234.953125 61.535156 235.410156 61.453125 235.867188 61.363281 C 235.832031 61.199219 235.792969 60.890625 235.765625 60.890625 C 235.316406 60.90625 234.867188 60.96875 234.421875 61.015625 Z M 237.511719 116.765625 C 238.59375 116.054688 238.59375 116.054688 237.4375 115.335938 C 237.464844 115.867188 237.484375 116.257812 237.511719 116.765625 Z M 77.234375 229.578125 C 77.578125 229.621094 77.929688 229.605469 78.273438 229.605469 C 78.28125 229.414062 78.285156 229.222656 78.292969 229.035156 C 77.929688 229.015625 77.570312 229 77.210938 228.980469 C 77.21875 229.1875 77.203125 229.574219 77.234375 229.578125 Z M 120.304688 153.523438 C 120.304688 153.949219 120.304688 154.378906 120.304688 154.800781 C 120.515625 154.804688 120.726562 154.804688 120.941406 154.804688 C 120.90625 154.371094 120.867188 153.933594 120.832031 153.496094 C 120.65625 153.503906 120.476562 153.515625 120.304688 153.523438 Z M 44.320312 166.429688 C 44.515625 166.363281 44.714844 166.296875 44.910156 166.234375 C 44.800781 165.867188 44.695312 165.503906 44.585938 165.140625 C 44.371094 165.21875 43.964844 165.34375 43.96875 165.371094 C 44.054688 165.730469 44.195312 166.078125 44.320312 166.429688 Z M 113.042969 96.195312 C 113.042969 95.757812 113.042969 95.324219 113.042969 94.886719 C 112.832031 94.894531 112.621094 94.90625 112.40625 94.914062 C 112.453125 95.351562 112.5 95.785156 112.546875 96.222656 C 112.710938 96.210938 112.875 96.203125 113.042969 96.195312 Z M 229.234375 258.085938 C 229.0625 258.484375 228.945312 258.90625 228.820312 259.328125 C 229 259.394531 229.183594 259.457031 229.367188 259.527344 C 229.546875 259.113281 229.730469 258.699219 229.914062 258.285156 C 229.679688 258.214844 229.246094 258.058594 229.234375 258.085938 Z M 222.609375 44.417969 C 222.625 44.050781 222.699219 43.671875 222.625 43.328125 C 222.605469 43.242188 222.109375 43.261719 221.832031 43.234375 C 221.875 43.621094 221.914062 44.007812 221.953125 44.398438 C 222.171875 44.40625 222.390625 44.410156 222.609375 44.417969 Z M 209.835938 257.078125 C 209.90625 256.890625 209.984375 256.703125 210.058594 256.511719 C 209.648438 256.347656 209.238281 256.175781 208.816406 256.054688 C 208.789062 256.046875 208.652344 256.40625 208.5625 256.59375 C 208.988281 256.753906 209.410156 256.917969 209.835938 257.078125 Z M 152.140625 257.09375 C 152.226562 256.898438 152.308594 256.707031 152.390625 256.515625 C 151.976562 256.359375 151.5625 256.191406 151.136719 256.0625 C 151.105469 256.054688 150.988281 256.34375 150.914062 256.5 C 151.320312 256.695312 151.734375 256.894531 152.140625 257.09375 Z M 212.203125 176.925781 C 211.816406 177.046875 211.425781 177.148438 211.0625 177.3125 C 211.019531 177.332031 211.125 177.695312 211.164062 177.898438 C 211.570312 177.804688 211.972656 177.710938 212.375 177.617188 C 212.316406 177.386719 212.257812 177.15625 212.203125 176.925781 Z M 68.28125 90.050781 C 68.269531 89.789062 68.257812 89.527344 68.25 89.269531 C 67.867188 89.324219 67.480469 89.347656 67.125 89.464844 C 67.035156 89.496094 67.054688 89.84375 67.023438 90.050781 C 67.441406 90.050781 67.863281 90.050781 68.28125 90.050781 Z M 46.011719 169.621094 C 46.023438 169.410156 45.671875 169.179688 45.398438 168.859375 C 45.160156 169.1875 44.867188 169.425781 44.910156 169.574219 C 44.984375 169.839844 45.257812 170.042969 45.449219 170.273438 C 45.648438 170.058594 45.996094 169.847656 46.011719 169.621094 Z M 171.914062 201.574219 C 171.921875 201.777344 171.933594 201.980469 171.941406 202.179688 C 172.378906 202.152344 172.820312 202.136719 173.25 202.066406 C 173.289062 202.058594 173.265625 201.679688 173.273438 201.476562 C 172.820312 201.507812 172.367188 201.542969 171.914062 201.574219 Z M 115.96875 197.296875 C 115.96875 196.585938 115.96875 195.878906 115.96875 195.171875 C 115.878906 195.171875 115.785156 195.167969 115.6875 195.167969 C 115.6875 195.882812 115.6875 196.597656 115.6875 197.3125 C 115.785156 197.308594 115.878906 197.304688 115.96875 197.296875 Z M 134.984375 266.695312 C 135.398438 266.769531 135.824219 266.777344 136.246094 266.804688 C 136.265625 266.605469 136.28125 266.410156 136.300781 266.214844 C 135.859375 266.148438 135.417969 266.078125 134.976562 266.015625 C 134.976562 266.25 134.9375 266.683594 134.984375 266.695312 Z M 162.925781 248.980469 C 162.902344 248.429688 162.851562 247.875 162.804688 247.320312 C 162.601562 247.34375 162.394531 247.371094 162.191406 247.394531 C 162.269531 247.941406 162.34375 248.488281 162.445312 249.03125 C 162.449219 249.046875 162.925781 248.992188 162.925781 248.980469 Z M 64.21875 189.46875 C 64.132812 190.652344 64.3125 190.746094 65.851562 190.132812 C 65.109375 189.832031 64.683594 189.65625 64.21875 189.46875 Z M 226.90625 280.511719 C 226.90625 281.085938 226.90625 281.660156 226.90625 282.234375 C 227.007812 282.230469 227.113281 282.226562 227.21875 282.222656 C 227.21875 281.652344 227.21875 281.082031 227.21875 280.507812 C 227.113281 280.511719 227.007812 280.511719 226.90625 280.511719 Z M 181.679688 228.992188 C 181.28125 228.820312 180.992188 228.582031 180.808594 228.644531 C 180.503906 228.746094 180.269531 229.046875 180.007812 229.265625 C 180.226562 229.476562 180.4375 229.828125 180.671875 229.847656 C 180.875 229.863281 181.113281 229.5 181.679688 228.992188 Z M 220.320312 41.585938 C 219.882812 41.535156 219.449219 41.472656 219.011719 41.460938 C 218.984375 41.460938 218.9375 41.832031 218.902344 42.03125 C 219.359375 42.097656 219.8125 42.160156 220.269531 42.226562 C 220.285156 42.015625 220.304688 41.800781 220.320312 41.585938 Z M 111.089844 260.863281 C 110.640625 260.96875 110.179688 261.046875 109.746094 261.203125 C 109.6875 261.222656 109.75 261.589844 109.753906 261.796875 C 110.242188 261.71875 110.730469 261.644531 111.21875 261.570312 C 111.175781 261.332031 111.132812 261.097656 111.089844 260.863281 Z M 188.714844 244.949219 C 188.632812 245.445312 188.550781 245.9375 188.472656 246.429688 C 188.707031 246.46875 188.941406 246.5 189.175781 246.53125 C 189.234375 246.03125 189.296875 245.535156 189.351562 245.035156 C 189.140625 245.007812 188.925781 244.976562 188.714844 244.949219 Z M 163.058594 190.398438 C 162.945312 189.828125 162.828125 189.257812 162.71875 188.683594 C 162.5 188.726562 162.289062 188.769531 162.074219 188.8125 C 162.21875 189.386719 162.359375 189.964844 162.5 190.539062 C 162.683594 190.492188 162.875 190.445312 163.058594 190.398438 Z M 176 49.265625 C 176.722656 50.523438 176.722656 50.523438 177.777344 49.265625 C 177.097656 49.265625 176.59375 49.265625 176 49.265625 Z M 81.949219 116.25 C 81.84375 115.667969 81.734375 115.082031 81.628906 114.5 C 81.410156 114.546875 81.191406 114.59375 80.96875 114.640625 C 81.105469 115.21875 81.242188 115.796875 81.378906 116.378906 C 81.570312 116.335938 81.757812 116.292969 81.949219 116.25 Z M 196.621094 215.875 C 196.734375 215.875 196.84375 215.875 196.953125 215.875 C 196.953125 215.289062 196.953125 214.707031 196.953125 214.125 C 196.84375 214.125 196.734375 214.125 196.621094 214.125 C 196.621094 214.710938 196.621094 215.292969 196.621094 215.875 Z M 212.71875 285.578125 C 212.707031 285.566406 212.695312 285.546875 212.683594 285.546875 C 212.257812 285.484375 211.828125 285.515625 211.398438 285.515625 C 211.398438 285.542969 211.402344 285.566406 211.402344 285.585938 C 211.429688 285.804688 211.453125 286.019531 211.472656 286.242188 C 211.957031 286.183594 212.4375 286.132812 212.921875 286.074219 C 212.851562 285.917969 212.796875 285.660156 212.71875 285.578125 Z M 169.695312 270.003906 C 169.625 270.015625 169.640625 270.507812 169.617188 270.777344 C 170.085938 270.710938 170.554688 270.652344 171.019531 270.589844 C 171.007812 270.382812 170.996094 270.175781 170.980469 269.96875 C 170.554688 269.96875 170.113281 269.933594 169.695312 270.003906 Z M 120.164062 102.710938 C 119.871094 102.816406 119.597656 103.082031 119.421875 103.355469 C 119.371094 103.4375 119.691406 103.75 120.191406 104.4375 C 120.429688 103.925781 120.679688 103.597656 120.710938 103.25 C 120.726562 103.074219 120.277344 102.667969 120.164062 102.710938 Z M 201.246094 275.597656 C 202.09375 275.472656 202.628906 275.390625 203.429688 275.277344 C 202.523438 274.285156 201.976562 274.234375 201.246094 275.597656 Z M 124.792969 81.257812 C 124.367188 81.335938 123.9375 81.382812 123.535156 81.523438 C 123.460938 81.554688 123.53125 81.980469 123.53125 82.222656 C 123.992188 82.117188 124.449219 82.007812 124.910156 81.902344 C 124.871094 81.6875 124.832031 81.472656 124.792969 81.257812 Z M 103.085938 64.632812 C 102.890625 64.675781 102.695312 64.71875 102.5 64.765625 C 102.625 65.367188 102.75 65.96875 102.875 66.570312 C 103.054688 66.535156 103.238281 66.5 103.414062 66.460938 C 103.304688 65.851562 103.195312 65.242188 103.085938 64.632812 Z M 59.867188 271.636719 C 59.992188 271.632812 60.117188 271.632812 60.242188 271.632812 C 60.242188 270.992188 60.242188 270.351562 60.242188 269.710938 C 60.117188 269.71875 59.992188 269.726562 59.867188 269.734375 C 59.867188 270.367188 59.867188 271 59.867188 271.636719 Z M 134.0625 279.464844 C 134.210938 279.460938 134.363281 279.453125 134.515625 279.445312 C 134.515625 278.800781 134.515625 278.15625 134.515625 277.511719 C 134.332031 277.519531 134.148438 277.523438 133.96875 277.527344 C 133.996094 278.175781 134.03125 278.820312 134.0625 279.464844 Z M 237.050781 45.109375 C 236.921875 45.121094 236.789062 45.128906 236.65625 45.140625 C 236.65625 45.800781 236.65625 46.460938 236.65625 47.125 C 236.789062 47.125 236.921875 47.121094 237.050781 47.117188 C 237.050781 46.449219 237.050781 45.777344 237.050781 45.109375 Z M 74.164062 196.523438 C 74.242188 197.167969 74.320312 197.8125 74.398438 198.453125 C 74.628906 198.425781 74.859375 198.394531 75.089844 198.367188 C 75.003906 197.726562 74.917969 197.078125 74.832031 196.4375 C 74.609375 196.46875 74.386719 196.496094 74.164062 196.523438 Z M 230.464844 282.316406 C 230.582031 282.984375 230.691406 283.648438 230.835938 284.304688 C 230.835938 284.320312 231.398438 284.230469 231.398438 284.21875 C 231.335938 283.546875 231.238281 282.871094 231.144531 282.195312 C 230.921875 282.238281 230.691406 282.277344 230.464844 282.316406 Z M 77.535156 235.605469 C 77.660156 234.710938 77.730469 234.207031 77.800781 233.703125 C 77.351562 233.773438 76.90625 233.84375 76.167969 233.953125 C 76.695312 234.59375 76.953125 234.902344 77.535156 235.605469 Z M 132.296875 222.367188 C 132.933594 222.605469 133.570312 222.839844 134.207031 223.078125 C 134.261719 222.84375 134.316406 222.609375 134.375 222.378906 C 133.738281 222.195312 133.097656 222.015625 132.464844 221.835938 C 132.40625 222.011719 132.351562 222.1875 132.296875 222.367188 Z M 175.101562 283.378906 C 175.222656 283.378906 175.347656 283.378906 175.472656 283.375 C 175.472656 282.691406 175.472656 282.007812 175.472656 281.324219 C 175.347656 281.324219 175.222656 281.324219 175.101562 281.328125 C 175.101562 282.011719 175.101562 282.695312 175.101562 283.378906 Z M 234.917969 99.085938 C 234.976562 99.363281 235.054688 99.878906 235.085938 99.875 C 235.578125 99.839844 236.066406 99.730469 236.554688 99.632812 C 236.515625 99.390625 236.476562 99.148438 236.4375 98.90625 C 235.933594 98.96875 235.421875 99.023438 234.917969 99.085938 Z M 54.035156 145.71875 C 53.890625 145.726562 53.746094 145.738281 53.601562 145.75 C 53.601562 146.460938 53.601562 147.179688 53.601562 147.890625 C 53.746094 147.890625 53.890625 147.890625 54.035156 147.890625 C 54.035156 147.164062 54.035156 146.441406 54.035156 145.71875 Z M 137.046875 96.71875 C 137.195312 96.726562 137.347656 96.730469 137.5 96.738281 C 137.570312 96.109375 137.644531 95.484375 137.71875 94.855469 C 136.359375 95.441406 136.648438 96.078125 137.046875 96.71875 Z M 65.195312 231.679688 C 65.246094 231.039062 65.308594 230.414062 65.328125 229.785156 C 65.328125 229.765625 64.925781 229.730469 64.710938 229.703125 C 64.730469 230.335938 64.753906 230.96875 64.78125 231.601562 C 64.78125 231.609375 64.859375 231.617188 65.195312 231.679688 Z M 219.785156 141.722656 C 219.65625 141.078125 219.53125 140.4375 219.402344 139.792969 C 219.1875 139.835938 218.972656 139.875 218.757812 139.917969 C 218.871094 140.5625 218.984375 141.210938 219.101562 141.855469 C 219.328125 141.8125 219.554688 141.765625 219.785156 141.722656 Z M 246.0625 195.195312 C 245.824219 194.390625 245.664062 193.832031 245.5 193.273438 C 245.308594 193.296875 245.121094 193.320312 244.929688 193.339844 C 244.902344 193.898438 244.835938 194.464844 244.894531 195.015625 C 244.902344 195.09375 245.503906 195.113281 246.0625 195.195312 Z M 119.570312 229.894531 C 119.699219 229.929688 119.828125 229.964844 119.964844 230 C 120.304688 229.738281 120.644531 229.476562 121.058594 229.15625 C 120.632812 228.707031 120.328125 228.386719 119.6875 227.710938 C 119.632812 228.714844 119.597656 229.304688 119.570312 229.894531 Z M 240.003906 241.292969 C 240.003906 240.53125 240.003906 239.769531 240.003906 239.011719 C 239.8125 239.015625 239.621094 239.027344 239.429688 239.039062 C 239.476562 239.800781 239.527344 240.5625 239.578125 241.324219 C 239.71875 241.3125 239.859375 241.304688 240.003906 241.292969 Z M 116.507812 270.070312 C 116.746094 269.382812 116.945312 268.804688 117.144531 268.230469 C 116.828125 268.265625 116.445312 268.199219 116.210938 268.355469 C 115.59375 268.773438 115.28125 269.296875 116.507812 270.070312 Z M 51.304688 277.804688 C 51.402344 277.613281 51.5 277.421875 51.59375 277.230469 C 50.867188 276.957031 50.136719 276.6875 49.40625 276.414062 C 49.53125 277.929688 50.59375 277.515625 51.304688 277.804688 Z M 60.578125 278.804688 C 60.953125 279.640625 61.191406 280.167969 61.429688 280.695312 C 61.648438 280.660156 61.863281 280.625 62.078125 280.589844 C 61.984375 280.054688 61.964844 279.488281 61.761719 279 C 61.699219 278.84375 61.148438 278.886719 60.578125 278.804688 Z M 159.925781 191.636719 C 159.925781 190.941406 159.925781 190.242188 159.925781 189.1875 C 158.71875 190.195312 159.277344 190.917969 159.925781 191.636719 Z M 137.59375 41.167969 C 137.519531 40.558594 137.445312 39.949219 137.351562 39.34375 C 137.34375 39.28125 137.21875 39.238281 137.144531 39.1875 C 137 39.203125 136.859375 39.214844 136.710938 39.230469 C 136.789062 39.890625 136.859375 40.550781 136.96875 41.207031 C 136.976562 41.230469 137.378906 41.183594 137.59375 41.167969 Z M 132.8125 70.019531 C 132.523438 69.785156 132.339844 69.632812 132.160156 69.484375 C 131.84375 70.035156 131.496094 70.570312 131.242188 71.144531 C 131.191406 71.261719 131.484375 71.527344 131.613281 71.726562 C 131.992188 71.1875 132.371094 70.652344 132.8125 70.019531 Z M 129.8125 57.882812 C 129.21875 57.722656 128.410156 57.265625 128.261719 58.914062 C 129.101562 58.757812 129.753906 58.636719 130.40625 58.515625 C 130.210938 58.296875 130.054688 57.945312 129.8125 57.882812 Z M 87.609375 256.21875 C 87.785156 256.25 87.964844 256.285156 88.140625 256.316406 C 88.433594 255.992188 88.726562 255.667969 89.019531 255.34375 C 88.996094 255.164062 88.96875 254.988281 88.949219 254.8125 C 88.390625 254.765625 87.835938 254.714844 87.28125 254.664062 C 87.390625 255.179688 87.5 255.699219 87.609375 256.21875 Z M 94.269531 171.355469 C 92.570312 172.355469 92.554688 172.695312 94.109375 173.71875 C 94.164062 172.882812 94.203125 172.253906 94.269531 171.355469 Z M 112.328125 158.015625 C 111.792969 159.484375 111.835938 159.875 112.585938 160.410156 C 113.21875 158.730469 113.183594 158.40625 112.328125 158.015625 Z M 89.839844 276.273438 C 89.941406 275.695312 90.09375 275.140625 90.3125 274.609375 C 90.1875 274.507812 90.046875 274.40625 89.882812 274.304688 C 89.195312 275.019531 88.957031 275.65625 89.839844 276.273438 Z M 122.375 265.335938 C 122.320312 265.488281 122.664062 265.78125 122.828125 266.007812 C 123.15625 265.59375 123.488281 265.1875 123.914062 264.664062 C 123.578125 264.25 123.375 264.003906 123.175781 263.753906 C 122.898438 264.28125 122.566406 264.78125 122.375 265.335938 Z M 239.425781 165.9375 C 239.367188 166.753906 239.171875 167.628906 240.40625 168.085938 C 240.363281 167.460938 240.351562 166.828125 240.265625 166.210938 C 240.242188 166.03125 240.039062 165.828125 239.863281 165.742188 C 239.765625 165.691406 239.429688 165.855469 239.425781 165.9375 Z M 200.40625 190.699219 C 199.941406 189.195312 199.851562 189.164062 198.433594 190.0625 C 198.851562 191.054688 199.34375 191.691406 200.40625 190.699219 Z M 58 147.988281 C 58.089844 148.527344 58.398438 149.03125 58.625 149.546875 C 58.894531 149.445312 59.167969 149.347656 59.4375 149.246094 C 59.289062 148.625 59.140625 148.011719 58.988281 147.394531 C 58.644531 147.597656 57.976562 147.847656 58 147.988281 Z M 95.082031 186.316406 C 94.609375 185.785156 94.125 185.160156 93.363281 185.960938 C 93.164062 186.171875 93.234375 186.632812 93.183594 186.980469 C 93.8125 186.945312 94.441406 186.910156 95.070312 186.878906 C 95.074219 186.691406 95.078125 186.503906 95.082031 186.316406 Z M 166.710938 273.710938 C 166.945312 273.882812 167.402344 273.75 167.757812 273.761719 C 167.617188 273.121094 167.472656 272.484375 167.332031 271.84375 C 166.417969 272.488281 165.804688 273.046875 166.710938 273.710938 Z M 61.554688 78.238281 C 61.980469 78.84375 62.296875 79.523438 62.453125 79.484375 C 63.085938 79.347656 63.664062 78.984375 64.261719 78.703125 C 64.195312 78.546875 64.132812 78.390625 64.066406 78.238281 C 63.363281 78.238281 62.660156 78.238281 61.554688 78.238281 Z M 207.578125 45.257812 C 207.832031 45.441406 208.296875 45.332031 208.664062 45.359375 C 208.546875 44.738281 208.421875 44.117188 208.304688 43.5 C 208.101562 43.523438 207.90625 43.546875 207.707031 43.578125 C 207.363281 44.097656 206.691406 44.617188 207.578125 45.257812 Z M 98.367188 225.101562 C 98.585938 225.203125 98.804688 225.300781 99.023438 225.402344 C 99.507812 224.867188 99.996094 224.335938 100.480469 223.800781 C 99.90625 223.839844 99.28125 223.761719 98.777344 223.96875 C 98.527344 224.074219 98.496094 224.710938 98.367188 225.101562 Z M 222.019531 267.941406 C 222.03125 267.695312 222.046875 267.445312 222.0625 267.195312 C 221.421875 267.054688 220.785156 266.914062 220.152344 266.769531 C 220.171875 267.179688 220.144531 267.9375 220.214844 267.945312 C 220.808594 268.023438 221.417969 267.960938 222.019531 267.941406 Z M 177.226562 138.816406 C 177.199219 138.574219 177.175781 138.332031 177.148438 138.085938 C 176.476562 138.070312 175.800781 138.058594 175.125 138.042969 C 175.214844 138.445312 175.300781 138.847656 175.390625 139.25 C 176 139.105469 176.613281 138.964844 177.226562 138.816406 Z M 198.773438 201.648438 C 198.519531 201.636719 198.257812 201.625 198.003906 201.613281 C 197.917969 202.273438 197.832031 202.9375 197.746094 203.597656 C 198.125 203.613281 198.5 203.628906 198.878906 203.644531 C 198.84375 202.980469 198.808594 202.3125 198.773438 201.648438 Z M 106.375 246.832031 C 106.082031 246.207031 105.660156 245.640625 105.289062 245.046875 C 105.136719 245.054688 104.988281 245.058594 104.839844 245.0625 C 104.839844 245.421875 104.710938 245.851562 104.867188 246.128906 C 105.160156 246.667969 105.609375 247.121094 106 247.609375 C 106.132812 247.34375 106.449219 246.996094 106.375 246.832031 Z M 208.445312 207.164062 C 208.449219 207.304688 209.136719 207.414062 209.507812 207.539062 C 209.546875 206.90625 209.582031 206.273438 209.621094 205.644531 C 209.320312 205.605469 209.023438 205.5625 208.730469 205.519531 C 208.617188 206.070312 208.421875 206.621094 208.445312 207.164062 Z M 76.503906 125.304688 C 76.917969 125.367188 77.328125 125.429688 77.742188 125.492188 C 77.742188 124.851562 77.742188 124.210938 77.742188 123.574219 C 77.445312 123.53125 77.148438 123.492188 76.851562 123.453125 C 76.734375 124.066406 76.617188 124.6875 76.503906 125.304688 Z M 217.390625 226.109375 C 217.121094 226.078125 216.851562 226.046875 216.585938 226.011719 C 216.457031 226.585938 216.28125 227.160156 216.246094 227.742188 C 216.242188 227.8125 216.992188 227.929688 217.390625 228.023438 C 217.390625 227.386719 217.390625 226.75 217.390625 226.109375 Z M 55.003906 277.589844 C 54.757812 277.476562 54.328125 277.761719 53.984375 277.863281 C 54.238281 278.453125 54.492188 279.039062 54.828125 279.828125 C 55.769531 278.71875 55.957031 278.039062 55.003906 277.589844 Z M 175.820312 273.328125 C 176.8125 274.371094 177.015625 274.328125 177.933594 272.945312 C 177.078125 271.867188 176.421875 272.167969 175.820312 273.328125 Z M 144.8125 266.949219 C 144.980469 267.550781 145.144531 268.15625 145.3125 268.757812 C 145.609375 268.703125 145.902344 268.644531 146.199219 268.589844 C 146.136719 268.039062 146.148438 267.457031 145.957031 266.953125 C 145.90625 266.824219 145.210938 266.945312 144.8125 266.949219 Z M 123.175781 90.316406 C 123.566406 90.046875 123.851562 89.851562 124.140625 89.648438 C 123.683594 89.414062 123.25 89.050781 122.777344 88.988281 C 122.390625 88.9375 121.960938 89.25 121.546875 89.40625 C 122.058594 89.691406 122.570312 89.980469 123.175781 90.316406 Z M 63.5 179.375 C 63.398438 178.976562 63.335938 178.570312 63.300781 178.152344 C 63.132812 178.242188 62.976562 178.34375 62.824219 178.453125 C 62.703125 178.542969 62.996094 179.1875 63.105469 179.613281 C 63.246094 179.53125 63.375 179.449219 63.5 179.375 Z M 245.070312 221.097656 C 244.582031 220.304688 244.191406 219.667969 243.796875 219.027344 C 243.605469 219.464844 243.304688 219.890625 243.238281 220.34375 C 243.078125 221.394531 243.710938 221.476562 245.070312 221.097656 Z M 195.875 209.109375 C 195.84375 208.820312 195.8125 208.527344 195.777344 208.234375 C 195.089844 208.234375 194.398438 208.234375 193.707031 208.234375 C 193.777344 208.636719 193.859375 209.386719 193.914062 209.382812 C 194.570312 209.359375 195.222656 209.21875 195.875 209.109375 Z M 55.226562 187.765625 C 55.484375 187.152344 55.515625 186.449219 55.640625 185.785156 C 55.277344 185.863281 54.722656 185.828125 54.59375 186.046875 C 54.269531 186.582031 54.140625 187.234375 53.929688 187.84375 C 54.015625 187.96875 54.101562 188.09375 54.183594 188.21875 C 54.546875 188.074219 55.125 188.015625 55.226562 187.765625 Z M 237.027344 112.695312 C 237.121094 112.417969 237.339844 112.109375 237.28125 111.867188 C 237.144531 111.296875 236.878906 110.757812 236.617188 110.085938 C 236.15625 110.292969 235.804688 110.453125 235.34375 110.664062 C 235.714844 111.355469 235.9375 111.875 236.265625 112.320312 C 236.414062 112.523438 236.765625 112.574219 237.027344 112.695312 Z M 226.746094 144.398438 C 227.324219 144.167969 227.914062 143.96875 228.472656 143.695312 C 228.777344 143.542969 229.019531 143.273438 229.375 142.984375 C 229.09375 142.746094 228.863281 142.457031 228.78125 142.492188 C 228 142.859375 227.234375 143.269531 226.496094 143.710938 C 226.457031 143.734375 226.65625 144.160156 226.746094 144.398438 Z M 255.226562 227.519531 C 255.390625 227.289062 255.75 227.007812 255.703125 226.835938 C 255.503906 226.101562 255.179688 225.398438 254.90625 224.683594 C 254.75 224.695312 254.601562 224.714844 254.445312 224.726562 C 254.28125 225 253.917969 225.371094 253.996094 225.527344 C 254.335938 226.222656 254.800781 226.859375 255.226562 227.519531 Z M 98.832031 229.839844 C 99.425781 230.917969 99.9375 231.054688 100.398438 230.226562 C 100.675781 229.722656 101.867188 229.234375 100.855469 228.640625 C 100.527344 228.445312 99.519531 229.414062 98.832031 229.839844 Z M 173.242188 182.792969 C 173.285156 182.636719 173.328125 182.480469 173.367188 182.328125 C 172.726562 182.117188 172.085938 181.902344 171.449219 181.691406 C 171.40625 182.136719 171.167969 182.71875 171.363281 183 C 172.109375 184.082031 172.636719 183.042969 173.242188 182.792969 Z M 212.296875 40.304688 C 210.898438 41.554688 210.882812 41.722656 211.988281 42.804688 C 213.382812 42 213.390625 41.941406 212.296875 40.304688 Z M 85.246094 89.59375 C 84.0625 89.148438 82.964844 88.726562 81.859375 88.304688 C 81.820312 88.429688 81.773438 88.558594 81.730469 88.6875 C 82.851562 90.070312 84.4375 90.59375 85.246094 89.59375 Z M 102.15625 255.703125 C 102.695312 255.242188 103.070312 254.921875 103.445312 254.605469 C 103.019531 254.394531 102.59375 254.015625 102.175781 254.027344 C 101.75 254.035156 101.332031 254.429688 100.910156 254.65625 C 101.257812 254.945312 101.609375 255.238281 102.15625 255.703125 Z M 227.445312 196.683594 C 227.367188 196.074219 227.347656 195.453125 227.195312 194.863281 C 227.109375 194.527344 226.808594 194.25 226.472656 193.742188 C 226.128906 194.191406 225.769531 194.476562 225.816406 194.628906 C 226.039062 195.328125 226.351562 196.003906 226.703125 196.648438 C 226.765625 196.761719 227.1875 196.675781 227.445312 196.683594 Z M 159.859375 153.953125 C 159.890625 153.871094 159.910156 153.789062 159.933594 153.699219 C 159.664062 153.179688 159.472656 152.613281 159.371094 152.019531 C 159.097656 152.492188 158.8125 152.960938 158.65625 153.46875 C 158.570312 153.746094 158.953125 154.171875 159.121094 154.527344 C 159.375 154.339844 159.761719 154.203125 159.859375 153.953125 Z M 229.351562 182.398438 C 229.351562 182.148438 229.121094 181.753906 228.917969 181.695312 C 228.710938 181.636719 228.269531 181.84375 228.171875 182.046875 C 227.894531 182.628906 227.742188 183.261719 227.511719 183.96875 C 228.921875 184.46875 229.367188 184.058594 229.351562 182.398438 Z M 85.226562 72.9375 C 86.691406 75.257812 86.734375 75.28125 87.679688 74.339844 C 86.226562 71.917969 86.121094 71.855469 85.226562 72.9375 Z M 74.261719 72.785156 C 74.015625 71.847656 73.773438 70.914062 73.496094 69.851562 C 72.914062 70.167969 72.597656 70.335938 72.105469 70.601562 C 72.578125 71.382812 72.917969 72.054688 73.367188 72.628906 C 73.503906 72.804688 73.953125 72.738281 74.261719 72.785156 Z M 45.996094 152.929688 C 46.0625 152.75 45.707031 152.410156 45.289062 151.71875 C 44.789062 152.828125 44.414062 153.53125 44.183594 154.285156 C 44.140625 154.417969 44.699219 154.734375 44.976562 154.96875 C 45.328125 154.292969 45.730469 153.640625 45.996094 152.929688 Z M 130.945312 247.914062 C 130.984375 247.652344 130.726562 247.34375 130.601562 247.054688 C 130.320312 247.195312 129.925781 247.265625 129.78125 247.496094 C 129.441406 248.03125 129.226562 248.640625 128.917969 249.3125 C 129.367188 249.511719 129.765625 249.6875 130.34375 249.949219 C 130.59375 249.136719 130.839844 248.535156 130.945312 247.914062 Z M 140.804688 166.191406 C 140.96875 166.21875 141.265625 165.5 141.714844 164.789062 C 140.453125 164.6875 139.582031 164.613281 138.714844 164.59375 C 138.6875 164.59375 138.542969 165.371094 138.628906 165.414062 C 139.328125 165.738281 140.054688 166.054688 140.804688 166.191406 Z M 216.945312 166.554688 C 217.523438 166.628906 218.292969 167.125 218.402344 165.964844 C 218.460938 165.332031 218.210938 164.671875 218.101562 164.027344 C 217.585938 164.710938 217.066406 165.394531 216.546875 166.078125 C 216.679688 166.238281 216.816406 166.398438 216.945312 166.554688 Z M 100.984375 90.628906 C 102.070312 91.09375 102.71875 91.476562 103.417969 91.625 C 103.664062 91.675781 104.03125 91.148438 104.34375 90.886719 C 103.628906 90.496094 102.945312 90.035156 102.1875 89.761719 C 101.980469 89.6875 101.570312 90.1875 100.984375 90.628906 Z M 123.816406 224.199219 C 123.613281 224.609375 123.566406 225.09375 123.382812 225.515625 C 122.960938 226.5 123.488281 226.738281 124.46875 226.828125 C 124.617188 225.941406 124.789062 225.175781 124.855469 224.398438 C 124.875 224.15625 124.605469 223.890625 124.464844 223.640625 C 124.246094 223.824219 123.9375 223.964844 123.816406 224.199219 Z M 226.464844 51.839844 C 226.511719 50.90625 226.496094 49.960938 226.496094 48.902344 C 225.8125 49.027344 225.460938 49.09375 224.984375 49.179688 C 225.136719 50.078125 225.226562 50.808594 225.398438 51.519531 C 225.453125 51.742188 225.679688 51.992188 225.890625 52.074219 C 226.035156 52.132812 226.460938 51.9375 226.464844 51.839844 Z M 100.539062 178.363281 C 100.882812 178.453125 101.390625 178.5625 101.804688 178.644531 C 101.914062 178.519531 102.027344 178.402344 102.140625 178.28125 C 101.4375 177.914062 100.796875 177.445312 100.234375 176.890625 C 99.929688 176.914062 99.667969 177.1875 99.507812 177.84375 C 99.882812 178.039062 100.191406 178.277344 100.539062 178.363281 Z M 65.9375 85.550781 C 65.867188 85.503906 65.757812 85.515625 65.476562 85.46875 C 65.320312 85.738281 65.054688 86.046875 64.953125 86.402344 C 64.765625 87.035156 64.667969 87.695312 64.550781 88.347656 C 64.542969 88.382812 64.726562 88.507812 64.761719 88.484375 C 65.164062 88.242188 65.800781 88.050781 65.890625 87.710938 C 66.074219 87.03125 67.050781 86.265625 65.9375 85.550781 Z M 170.636719 260.867188 C 171.363281 260.320312 172.007812 259.875 172.59375 259.367188 C 172.679688 259.289062 172.742188 259.148438 172.773438 259.003906 C 172.671875 258.773438 172.578125 258.53125 172.503906 258.285156 C 172.410156 258.210938 172.308594 258.152344 172.21875 258.144531 C 171.128906 258.015625 170.074219 259.609375 170.636719 260.867188 Z M 236.5 200.769531 C 236.199219 201.027344 235.757812 201.230469 235.617188 201.558594 C 235.390625 202.09375 235.355469 202.710938 235.21875 203.398438 C 235.625 203.546875 235.992188 203.679688 236.539062 203.882812 C 236.707031 203.011719 236.894531 202.382812 236.921875 201.746094 C 236.933594 201.425781 236.652344 201.09375 236.5 200.769531 Z M 40.164062 104.59375 C 40.421875 104.121094 40.722656 103.65625 40.96875 103.175781 C 41.015625 102.828125 41.085938 102.480469 41.191406 102.148438 C 41.050781 101.910156 40.769531 101.625 40.609375 101.378906 C 40.453125 101.4375 40.300781 101.492188 40.148438 101.542969 C 39.875 102.269531 39.519531 102.976562 39.382812 103.726562 C 39.339844 103.960938 39.886719 104.304688 40.164062 104.59375 Z M 92.363281 262.382812 C 92.691406 262.089844 93.035156 261.824219 93.40625 261.585938 C 93.214844 261.378906 93 261.152344 92.757812 260.898438 C 92.175781 261.460938 91.992188 261.78125 92.363281 262.382812 Z M 192.703125 228.621094 C 193.050781 228.03125 193.257812 227.359375 193.5625 226.632812 C 193.140625 226.425781 192.789062 226.253906 192.289062 226.007812 C 191.960938 226.855469 191.648438 227.492188 191.492188 228.164062 C 191.421875 228.460938 191.679688 228.832031 191.785156 229.167969 C 192.101562 228.988281 192.539062 228.890625 192.703125 228.621094 Z M 259.601562 172.757812 C 259.832031 171.363281 258.351562 172.027344 257.632812 171.808594 C 257.378906 171.734375 257.117188 171.6875 256.898438 171.726562 C 256.859375 172.109375 256.785156 172.488281 256.691406 172.855469 C 256.988281 172.921875 257.253906 172.992188 257.515625 172.980469 C 258.242188 172.957031 259.40625 173.949219 259.601562 172.757812 Z M 44.484375 130.328125 C 44.601562 130.320312 44.71875 130.320312 44.835938 130.304688 C 44.980469 130.285156 45.03125 129.464844 45.21875 128.558594 C 44.972656 128.636719 44.746094 128.707031 44.523438 128.777344 C 44.09375 128.90625 43.703125 129.03125 43.34375 129.144531 C 42.9375 129.277344 42.558594 129.40625 42.1875 129.539062 C 42.160156 129.546875 42.273438 130.230469 42.363281 130.238281 C 42.679688 130.273438 43 130.300781 43.316406 130.320312 C 43.707031 130.347656 44.097656 130.351562 44.484375 130.328125 Z M 75.703125 223.714844 C 75.855469 223.234375 75.980469 222.835938 76.125 222.390625 C 75.082031 222.050781 74.214844 221.769531 73.359375 221.492188 C 72.871094 222.683594 72.871094 222.683594 75.703125 223.714844 Z M 94.625 133.425781 C 94.265625 134.285156 93.902344 135.15625 93.515625 136.078125 C 93.984375 136.277344 94.3125 136.417969 94.632812 136.554688 C 96.0625 134.351562 96.070312 133.722656 94.625 133.425781 Z M 127.015625 282.917969 C 124.121094 284.804688 124.066406 284.886719 125.144531 285.886719 L 125.148438 285.890625 C 125.15625 285.890625 125.164062 285.886719 125.164062 285.886719 C 127.722656 284.105469 127.859375 283.890625 127.015625 282.917969 Z M 72.125 111.546875 C 70.617188 108.871094 70.347656 108.710938 69.296875 109.933594 C 69.855469 110.6875 70.425781 111.449219 71.054688 112.292969 C 71.480469 111.996094 71.804688 111.769531 72.125 111.546875 Z M 113.898438 110.191406 C 113.875 109.3125 113.71875 108.4375 113.558594 107.097656 C 112.976562 107.523438 112.398438 107.742188 112.386719 107.992188 C 112.34375 108.820312 112.460938 109.667969 112.617188 110.492188 C 112.652344 110.683594 113.152344 110.980469 113.3125 110.914062 C 113.574219 110.8125 113.90625 110.441406 113.898438 110.191406 Z M 201.214844 241.527344 C 202.234375 239.839844 202.179688 239.554688 200.652344 238.484375 C 199.25 239.496094 199.398438 240.296875 201.214844 241.527344 Z M 42.304688 217.859375 C 42.480469 218.128906 42.804688 218.445312 42.90625 218.414062 C 43.589844 218.199219 44.210938 217.796875 44.953125 217.414062 C 44.335938 216.671875 43.925781 216.183594 43.28125 215.414062 C 42.902344 216.113281 42.550781 216.65625 42.320312 217.210938 C 42.273438 217.324219 42.226562 217.4375 42.191406 217.546875 C 42.171875 217.617188 42.222656 217.734375 42.304688 217.859375 Z M 235.425781 74.171875 C 235.777344 74.636719 236.125 75.101562 236.554688 75.675781 C 237.296875 75.054688 237.921875 74.535156 238.53125 74.03125 C 237.6875 72.660156 237.367188 72.683594 235.425781 74.171875 Z M 62.921875 154.101562 C 63.054688 154.273438 63.1875 154.449219 63.304688 154.632812 C 63.453125 154.695312 63.609375 154.734375 63.703125 154.691406 C 64.636719 154.292969 65.546875 153.832031 66.4375 153.332031 C 66.601562 153.238281 66.734375 152.859375 66.679688 152.664062 C 66.632812 152.464844 66.332031 152.328125 66.140625 152.164062 C 65.0625 152.695312 64.050781 153.160156 63.078125 153.695312 C 63 153.738281 62.9375 153.929688 62.921875 154.101562 Z M 112.671875 224.6875 C 112.972656 223.617188 113.285156 222.695312 113.457031 221.753906 C 113.507812 221.480469 113.15625 221.136719 112.988281 220.824219 C 112.734375 221.015625 112.34375 221.15625 112.242188 221.410156 C 111.90625 222.261719 111.671875 223.160156 111.410156 224.039062 C 111.386719 224.109375 111.453125 224.210938 111.5 224.363281 C 111.8125 224.449219 112.15625 224.542969 112.671875 224.6875 Z M 150.472656 195.714844 C 149.863281 195.328125 149.171875 195.078125 148.140625 194.59375 C 148.507812 195.652344 148.640625 196.363281 149 196.925781 C 149.210938 197.25 149.808594 197.515625 150.195312 197.476562 C 150.621094 197.433594 151.007812 197.007812 151.40625 196.75 C 151.101562 196.394531 150.851562 195.953125 150.472656 195.714844 Z M 214.257812 50.175781 C 215.15625 49.707031 215.996094 49.132812 216.863281 48.597656 C 216.882812 48.429688 216.898438 48.265625 216.917969 48.101562 C 216.417969 47.976562 215.835938 47.628906 215.441406 47.773438 C 214.726562 48.046875 214.082031 48.570312 213.484375 49.082031 C 213.300781 49.242188 213.21875 49.804688 213.351562 49.980469 C 213.5 50.175781 214.03125 50.289062 214.257812 50.175781 Z M 42.582031 206.640625 C 42.96875 205.914062 43.335938 205.21875 43.703125 204.515625 C 43.332031 204.292969 42.976562 204.027344 42.65625 203.730469 C 42.652344 203.726562 42.644531 203.722656 42.636719 203.71875 C 42.242188 204.042969 41.859375 204.683594 41.441406 205.664062 C 41.355469 205.867188 41.269531 206.078125 41.179688 206.308594 C 41.257812 206.355469 41.339844 206.40625 41.421875 206.457031 C 41.710938 206.628906 42.015625 206.8125 42.375 207.03125 C 42.445312 206.894531 42.515625 206.769531 42.582031 206.640625 Z M 55.074219 134.164062 C 54.136719 135.042969 53.332031 135.796875 52.359375 136.707031 C 52.832031 137.164062 53.175781 137.492188 53.445312 137.746094 C 54.398438 136.894531 55.222656 136.15625 56.234375 135.25 C 55.808594 134.851562 55.484375 134.546875 55.074219 134.164062 Z M 44.890625 269.472656 C 44.019531 268.324219 43.242188 267.304688 42.347656 266.117188 C 41.90625 266.527344 41.609375 266.796875 41.296875 267.09375 C 42.167969 268.289062 42.898438 269.292969 43.71875 270.417969 C 44.171875 270.054688 44.5 269.789062 44.890625 269.472656 Z M 180.855469 238.023438 C 181.476562 238.238281 182.054688 238.554688 182.558594 238.960938 C 183.078125 238.496094 183.582031 238.042969 184.171875 237.515625 C 183.644531 236.988281 183.234375 236.582031 182.898438 236.246094 C 182.144531 236.902344 181.511719 237.453125 180.855469 238.023438 Z M 129.875 183.730469 C 129.539062 184.875 130.738281 186.035156 131.90625 185.75 C 132.429688 185.625 132.933594 185.425781 133.707031 185.171875 C 132.597656 184.46875 131.726562 183.863281 130.789062 183.371094 C 130.585938 183.265625 129.933594 183.527344 129.875 183.730469 Z M 111.113281 68.992188 C 110.859375 69.042969 110.492188 69.53125 110.515625 69.800781 C 110.605469 70.804688 110.832031 71.792969 111.007812 72.789062 C 112.273438 72.890625 112.65625 72.402344 112.359375 71.3125 C 112.203125 70.726562 112.175781 70.097656 111.945312 69.546875 C 111.832031 69.273438 111.355469 68.941406 111.113281 68.992188 Z M 83.019531 62.476562 C 82.15625 62.632812 81.289062 62.765625 80.339844 62.921875 C 80.398438 63.4375 80.445312 63.835938 80.507812 64.417969 C 81.890625 64.21875 83.0625 64.046875 84.207031 63.882812 C 84.382812 62.765625 84.054688 62.289062 83.019531 62.476562 Z M 201.421875 264.167969 C 201.0625 263.929688 200.691406 263.683594 200.210938 263.363281 C 199.476562 264.429688 198.800781 265.414062 198.074219 266.46875 C 199.199219 267.464844 200.453125 266.566406 201.421875 264.167969 Z M 92.136719 72.207031 C 91.722656 72.207031 91.320312 72.164062 90.917969 72.097656 C 91.667969 72.617188 92.429688 73.140625 93.226562 73.6875 C 93.527344 73.253906 93.757812 72.925781 94.046875 72.519531 C 93.84375 72.367188 93.65625 72.21875 93.480469 72.078125 C 93.042969 72.15625 92.59375 72.207031 92.136719 72.207031 Z M 221.8125 57.382812 C 221.511719 56.527344 221.210938 55.671875 220.90625 54.820312 C 220.710938 54.820312 220.515625 54.824219 220.320312 54.824219 C 220.320312 56.015625 220.136719 57.246094 220.40625 58.371094 C 220.503906 58.796875 221.394531 59.03125 222.03125 59.324219 C 221.882812 58.820312 221.796875 58.285156 221.796875 57.734375 C 221.796875 57.617188 221.808594 57.5 221.8125 57.382812 Z M 120.230469 141.539062 C 123.035156 141.96875 124.289062 140.945312 123.960938 138.34375 C 122.6875 139.546875 121.011719 139.921875 120.230469 141.539062 Z M 61.894531 115.445312 C 61.808594 115.492188 61.855469 116.113281 61.972656 116.164062 C 62.941406 116.589844 63.933594 116.96875 64.945312 117.28125 C 65.0625 117.316406 65.460938 116.882812 65.507812 116.625 C 65.652344 115.789062 64.707031 114.65625 63.613281 114.652344 C 63.21875 114.828125 62.539062 115.09375 61.894531 115.445312 Z M 103.617188 99.871094 C 103.453125 99.800781 103.289062 99.730469 103.125 99.65625 C 102.292969 100.699219 101.460938 101.734375 100.5 102.929688 C 101.363281 103.3125 102.0625 103.625 103.09375 104.085938 C 103.289062 102.511719 103.453125 101.191406 103.617188 99.871094 Z M 121.710938 278.8125 C 121.046875 279.648438 120.503906 280.582031 119.792969 281.65625 C 120.386719 282.003906 120.851562 282.273438 121.417969 282.605469 C 121.984375 281.503906 122.53125 280.53125 122.96875 279.511719 C 123.085938 279.234375 122.878906 278.820312 122.820312 278.464844 C 122.441406 278.574219 121.910156 278.5625 121.710938 278.8125 Z M 151.113281 168.800781 C 150.242188 167.679688 149.417969 166.625 148.453125 165.382812 C 147.941406 165.832031 147.570312 166.152344 147.132812 166.535156 C 148.140625 167.671875 149.046875 168.703125 150.015625 169.800781 C 150.449219 169.40625 150.746094 169.136719 151.113281 168.800781 Z M 114.671875 250.726562 C 115.199219 249.597656 115.601562 248.410156 116.140625 247.015625 C 115.632812 246.824219 115.222656 246.667969 114.679688 246.460938 C 114.195312 247.773438 113.703125 248.964844 113.335938 250.191406 C 113.242188 250.5 113.539062 250.921875 113.65625 251.296875 C 114.007812 251.109375 114.539062 251.011719 114.671875 250.726562 Z M 209.277344 159.859375 C 209.414062 159.785156 209.550781 159.710938 209.691406 159.636719 C 209.828125 158.226562 209.964844 156.816406 210.101562 155.40625 C 209.90625 155.308594 209.714844 155.210938 209.519531 155.113281 C 208.84375 155.996094 207.851562 156.804688 207.621094 157.789062 C 207.5 158.320312 208.683594 159.160156 209.277344 159.859375 Z M 43.96875 228.960938 C 43.132812 230.480469 44.4375 230.59375 45.289062 231.257812 C 45.484375 230.804688 45.667969 230.375 45.84375 229.945312 C 45.253906 229.515625 44.71875 229.007812 44.261719 228.433594 C 44.171875 228.601562 44.074219 228.769531 43.96875 228.960938 Z M 44.640625 282.914062 C 45.726562 282.65625 45.867188 282.015625 45.300781 280.992188 C 45.035156 280.507812 44.855469 279.964844 44.703125 279.429688 C 44.332031 278.121094 43.644531 278.109375 42.601562 278.921875 C 43.121094 280.273438 43.640625 281.605469 44.140625 282.90625 C 44.308594 282.910156 44.476562 282.914062 44.640625 282.914062 Z M 151.371094 248.734375 C 151.710938 248.828125 152.4375 248.5 152.539062 248.210938 C 152.808594 247.460938 151.019531 245.875 150.25 246.148438 C 149.410156 246.449219 148.621094 246.882812 147.519531 247.390625 C 149.019531 247.933594 150.171875 248.417969 151.371094 248.734375 Z M 150.597656 285.003906 C 151.496094 285.03125 152.394531 285.0625 153.292969 285.101562 C 153.460938 284.882812 153.628906 284.65625 153.804688 284.421875 C 152.710938 283.875 151.824219 283.4375 150.882812 282.964844 C 150.773438 283.824219 150.667969 284.484375 150.597656 285.003906 Z M 191.40625 208.207031 C 191.0625 207.632812 190.789062 207.171875 190.453125 206.609375 C 189.070312 207.527344 187.804688 208.367188 186.433594 209.277344 C 186.773438 209.8125 187.039062 210.226562 187.402344 210.804688 C 188.828125 209.878906 190.070312 209.078125 191.40625 208.207031 Z M 183.25 139.632812 C 182.589844 137.679688 182.042969 136.054688 181.414062 134.183594 C 180.515625 135.269531 179.359375 136.003906 179.78125 137.308594 C 180.242188 138.722656 181.667969 139.03125 183.25 139.632812 Z M 84.53125 75.726562 C 83.882812 74.949219 83.175781 75.128906 82.859375 75.800781 C 82.496094 76.578125 82.507812 77.53125 82.359375 78.40625 C 82.996094 78.433594 83.652344 78.554688 84.277344 78.464844 C 84.953125 78.367188 85.601562 78.070312 86.605469 77.75 C 85.769531 76.949219 85.085938 76.386719 84.53125 75.726562 Z M 55.984375 111.464844 C 55.320312 112.992188 54.71875 114.351562 54.070312 115.835938 C 55.53125 115.835938 56.726562 115.835938 58.203125 115.835938 C 57.28125 114.410156 57.742188 112.578125 55.984375 111.464844 Z M 150.136719 163.472656 C 151.0625 162.339844 151.796875 161.050781 152.617188 159.820312 C 151.667969 159.0625 151.035156 159.046875 150.453125 159.914062 C 149.675781 161.070312 148.851562 162.195312 147.992188 163.410156 C 149.1875 164.378906 149.332031 164.457031 150.136719 163.472656 Z M 172.285156 209.660156 C 171.210938 208.207031 170.203125 206.851562 169.140625 205.414062 C 168.488281 205.964844 168.011719 206.367188 167.453125 206.839844 C 168.679688 208.191406 169.789062 209.421875 170.980469 210.738281 C 171.449219 210.351562 171.824219 210.046875 172.285156 209.660156 Z M 68.421875 278.742188 C 66.761719 279.023438 65.773438 281.222656 66.578125 282.972656 C 67.484375 282.34375 68.289062 281.796875 69.082031 281.238281 C 69.273438 281.109375 69.511719 280.96875 69.589844 280.773438 C 69.789062 280.273438 70.195312 279.5 70.003906 279.289062 C 69.675781 278.914062 68.929688 278.65625 68.421875 278.742188 Z M 65.648438 128.636719 C 65.71875 128.417969 65.871094 128.203125 65.878906 127.980469 C 65.886719 127.691406 65.878906 127.269531 65.703125 127.140625 C 65.523438 127.003906 65.035156 127.039062 64.847656 127.195312 C 63.667969 128.171875 62.539062 129.203125 61.265625 130.328125 C 64.484375 131.679688 64.65625 131.601562 65.648438 128.636719 Z M 218.035156 61.625 C 218.035156 61.730469 218.023438 61.828125 218.015625 61.933594 C 218.421875 62.554688 218.835938 63.191406 219.265625 63.855469 C 219.933594 62.867188 220.449219 62.109375 221.078125 61.1875 C 219.867188 60.488281 218.746094 59.835938 217.648438 59.203125 C 217.898438 59.96875 218.035156 60.78125 218.035156 61.625 Z M 225.550781 84.535156 C 226.25 84.71875 226.804688 84.867188 227.453125 85.039062 C 227.984375 82.953125 228.46875 81.027344 228.984375 79.011719 C 228.46875 78.820312 228.054688 78.664062 227.441406 78.4375 C 226.785156 80.554688 226.183594 82.492188 225.550781 84.535156 Z M 58.15625 218.835938 C 59.585938 218.824219 61.121094 219.050781 62.410156 218.59375 C 63.136719 218.335938 63.457031 216.933594 63.960938 216.046875 C 63.855469 215.953125 63.753906 215.855469 63.65625 215.761719 C 61.863281 216.359375 60.070312 216.9375 58.292969 217.574219 C 58.070312 217.65625 57.890625 218.035156 57.824219 218.304688 C 57.789062 218.457031 58.039062 218.839844 58.15625 218.835938 Z M 210.8125 142.074219 C 208.710938 142.773438 207.015625 143.335938 205.066406 143.984375 C 206.1875 145.152344 207.132812 146.140625 208.269531 147.332031 C 209.144531 145.527344 209.894531 143.972656 210.8125 142.074219 Z M 160.257812 252.453125 C 159.371094 252.617188 159.195312 253.179688 159.414062 253.875 C 159.796875 255.097656 160.28125 256.285156 160.867188 257.875 C 162.015625 255.632812 162.96875 253.765625 164.066406 251.625 C 162.59375 251.949219 161.4375 252.242188 160.257812 252.453125 Z M 208.386719 173.71875 C 212.097656 173.074219 214.023438 170.929688 213.523438 168.878906 C 212.34375 169.398438 211.246094 169.871094 210.15625 170.359375 C 208.492188 171.105469 207.945312 172.15625 208.386719 173.71875 Z M 163.785156 204.140625 C 164.21875 204.101562 164.640625 203.984375 165.070312 203.902344 C 164.832031 203.511719 164.625 203.09375 164.339844 202.742188 C 164.109375 202.460938 163.785156 202.25 163.5 202.011719 C 160.78125 199.757812 160.53125 199.765625 157.914062 202.0625 C 157.671875 202.273438 157.433594 202.492188 156.945312 202.925781 C 159.140625 203.320312 161.050781 203.664062 162.960938 204.007812 C 163.234375 204.054688 163.515625 204.164062 163.785156 204.140625 Z M 187.433594 34.550781 L 187.433594 30.824219 C 187.433594 28.84375 188.703125 25.09375 192.171875 23.351562 L 77.78125 13.566406 L 64.75 12.449219 L 62.617188 37.386719 Z M 261.371094 29.269531 L 250.613281 155.035156 C 247.992188 153.726562 245.046875 152.984375 241.917969 152.984375 L 239.972656 152.984375 L 239.972656 33.359375 L 190.15625 34.492188 L 190.15625 30.824219 C 190.15625 29.308594 191.628906 25.140625 196.363281 25.140625 C 201.746094 25.140625 202.402344 30.355469 202.457031 30.949219 C 202.527344 31.695312 203.1875 32.25 203.933594 32.179688 C 204.679688 32.113281 205.234375 31.453125 205.171875 30.707031 C 205.007812 28.875 204.0625 26.007812 201.734375 24.167969 L 261.371094 29.269531 "/>
</g>
</svg>
