<?xml version="1.0" standalone="no"?>
<!DOCTYPE svg PUBLIC "-//W3C//DTD SVG 20010904//EN"
 "http://www.w3.org/TR/2001/REC-SVG-20010904/DTD/svg10.dtd">
<svg version="1.0" xmlns="http://www.w3.org/2000/svg"
 width="500.000000pt" height="500.000000pt" viewBox="0 0 500.000000 500.000000"
 preserveAspectRatio="xMidYMid meet">

<g transform="translate(0.000000,500.000000) scale(0.100000,-0.100000)"
fill="#000000" stroke="none">
<path d="M1675 3136 c-175 -34 -293 -116 -354 -246 -22 -47 -26 -69 -26 -150
1 -113 19 -162 86 -229 63 -63 159 -104 364 -157 206 -52 271 -82 299 -135 18
-32 18 -41 7 -78 -24 -81 -125 -118 -291 -108 -119 8 -192 27 -300 80 -47 23
-88 43 -91 45 -7 3 -99 -199 -99 -216 0 -19 161 -91 265 -119 87 -23 121 -26
255 -27 119 0 170 4 220 18 218 60 341 197 342 383 0 100 -23 162 -83 224 -62
63 -137 99 -309 144 -256 68 -301 84 -337 120 -40 40 -44 91 -13 143 62 102
310 110 521 18 l77 -33 45 111 46 111 -67 32 c-106 52 -209 74 -357 79 -85 2
-154 -1 -200 -10z"/>
<path d="M2570 2471 l0 -661 150 0 150 0 0 185 0 185 188 0 c215 0 289 12 399
64 137 65 224 186 246 342 30 207 -69 393 -256 479 -119 54 -143 57 -524 62
l-353 5 0 -661z m697 389 c129 -55 178 -203 109 -326 -49 -87 -130 -114 -348
-114 l-158 0 0 236 0 237 173 -5 c150 -4 179 -8 224 -28z"/>
<path d="M640 2761 l-435 -166 0 -124 0 -124 440 -168 440 -167 3 111 c2 74
-1 113 -9 117 -6 4 -144 56 -307 115 -164 59 -300 110 -304 114 -3 3 135 58
308 121 l314 114 0 113 c0 62 -3 113 -7 112 -5 -1 -204 -76 -443 -168z"/>
<path d="M3910 2817 l0 -113 314 -114 c173 -63 311 -118 308 -121 -4 -4 -140
-55 -304 -114 -163 -59 -301 -111 -307 -115 -8 -4 -11 -43 -9 -117 l3 -111
440 167 440 168 0 124 0 124 -440 167 c-242 92 -441 168 -442 168 -2 0 -3 -51
-3 -113z"/>
</g>
</svg>
